G04 #@! TF.GenerationSoftware,KiCad,Pcbnew,(5.0.2)-1*
G04 #@! TF.CreationDate,2019-03-22T12:57:49+00:00*
G04 #@! TF.ProjectId,PCBStencil,50434253-7465-46e6-9369-6c2e6b696361,1.0*
G04 #@! TF.SameCoordinates,Original*
G04 #@! TF.FileFunction,Copper,L1,Top*
G04 #@! TF.FilePolarity,Positive*
%FSLAX46Y46*%
G04 Gerber Fmt 4.6, Leading zero omitted, Abs format (unit mm)*
G04 Created by KiCad (PCBNEW (5.0.2)-1) date 22/03/2019 12:57:49*
%MOMM*%
%LPD*%
G01*
G04 APERTURE LIST*
G04 #@! TA.AperFunction,ComponentPad*
%ADD10O,2.000000X3.500000*%
G04 #@! TD*
G04 #@! TA.AperFunction,ComponentPad*
%ADD11O,3.300000X2.000000*%
G04 #@! TD*
G04 #@! TA.AperFunction,ComponentPad*
%ADD12R,4.000000X2.000000*%
G04 #@! TD*
G04 #@! TA.AperFunction,ComponentPad*
%ADD13O,1.600000X1.600000*%
G04 #@! TD*
G04 #@! TA.AperFunction,ComponentPad*
%ADD14R,1.600000X1.600000*%
G04 #@! TD*
G04 #@! TA.AperFunction,ComponentPad*
%ADD15C,1.800000*%
G04 #@! TD*
G04 #@! TA.AperFunction,ComponentPad*
%ADD16R,1.800000X1.800000*%
G04 #@! TD*
G04 #@! TA.AperFunction,ViaPad*
%ADD17C,0.800000*%
G04 #@! TD*
G04 #@! TA.AperFunction,Conductor*
%ADD18C,0.250000*%
G04 #@! TD*
G04 APERTURE END LIST*
D10*
G04 #@! TO.P,REF\002A\002A,MP*
G04 #@! TO.N,N/C*
X97845000Y-114315000D03*
X88845000Y-114315000D03*
D11*
G04 #@! TO.P,REF\002A\002A,2*
X93345000Y-113315000D03*
D12*
G04 #@! TO.P,REF\002A\002A,1*
X93345000Y-107315000D03*
G04 #@! TD*
D13*
G04 #@! TO.P,REF\002A\002A,16*
G04 #@! TO.N,N/C*
X216535000Y-107950000D03*
G04 #@! TO.P,REF\002A\002A,8*
X203835000Y-125730000D03*
G04 #@! TO.P,REF\002A\002A,15*
X216535000Y-110490000D03*
G04 #@! TO.P,REF\002A\002A,7*
X203835000Y-123190000D03*
G04 #@! TO.P,REF\002A\002A,14*
X216535000Y-113030000D03*
G04 #@! TO.P,REF\002A\002A,6*
X203835000Y-120650000D03*
G04 #@! TO.P,REF\002A\002A,13*
X216535000Y-115570000D03*
G04 #@! TO.P,REF\002A\002A,5*
X203835000Y-118110000D03*
G04 #@! TO.P,REF\002A\002A,12*
X216535000Y-118110000D03*
G04 #@! TO.P,REF\002A\002A,4*
X203835000Y-115570000D03*
G04 #@! TO.P,REF\002A\002A,11*
X216535000Y-120650000D03*
G04 #@! TO.P,REF\002A\002A,3*
X203835000Y-113030000D03*
G04 #@! TO.P,REF\002A\002A,10*
X216535000Y-123190000D03*
G04 #@! TO.P,REF\002A\002A,2*
X203835000Y-110490000D03*
G04 #@! TO.P,REF\002A\002A,9*
X216535000Y-125730000D03*
D14*
G04 #@! TO.P,REF\002A\002A,1*
X203835000Y-107950000D03*
G04 #@! TD*
D15*
G04 #@! TO.P,REF\002A\002A,2*
G04 #@! TO.N,N/C*
X196850000Y-109855000D03*
D16*
G04 #@! TO.P,REF\002A\002A,1*
X196850000Y-112395000D03*
G04 #@! TD*
D17*
G04 #@! TO.N,*
X216535000Y-102870000D03*
X203835000Y-130175000D03*
X82550000Y-114300000D03*
G04 #@! TD*
D18*
G04 #@! TO.N,*
X93980000Y-107950000D02*
X93345000Y-107315000D01*
X203835000Y-107950000D02*
X93980000Y-107950000D01*
X99100000Y-115570000D02*
X97845000Y-114315000D01*
X203835000Y-115570000D02*
X99100000Y-115570000D01*
X102760000Y-125730000D02*
X93345000Y-116315000D01*
X203835000Y-125730000D02*
X102760000Y-125730000D01*
X216535000Y-107950000D02*
X216535000Y-102870000D01*
X203435001Y-129775001D02*
X203835000Y-130175000D01*
X203035001Y-129375001D02*
X203435001Y-129775001D01*
X203035001Y-126529999D02*
X203035001Y-129375001D01*
X203835000Y-125730000D02*
X203035001Y-126529999D01*
X88830000Y-114300000D02*
X88845000Y-114315000D01*
X82550000Y-114300000D02*
X88830000Y-114300000D01*
X203200000Y-112395000D02*
X203835000Y-113030000D01*
X196850000Y-112395000D02*
X203200000Y-112395000D01*
X203200000Y-109855000D02*
X203835000Y-110490000D01*
X196850000Y-109855000D02*
X203200000Y-109855000D01*
G04 #@! TD*
M02*
