G04 #@! TF.GenerationSoftware,KiCad,Pcbnew,(5.0.2)-1*
G04 #@! TF.CreationDate,2019-03-22T12:57:49+00:00*
G04 #@! TF.ProjectId,PCBStencil,50434253-7465-46e6-9369-6c2e6b696361,1.0*
G04 #@! TF.SameCoordinates,Original*
G04 #@! TF.FileFunction,Profile,NP*
%FSLAX46Y46*%
G04 Gerber Fmt 4.6, Leading zero omitted, Abs format (unit mm)*
G04 Created by KiCad (PCBNEW (5.0.2)-1) date 22/03/2019 12:57:49*
%MOMM*%
%LPD*%
G01*
G04 APERTURE LIST*
%ADD10C,0.150000*%
G04 APERTURE END LIST*
D10*
X229870000Y-121920000D02*
X229870000Y-136525000D01*
X229852028Y-121900624D02*
X229852028Y-107930624D01*
X163195000Y-97790000D02*
X160655000Y-95250000D01*
X160655000Y-95250000D02*
X158115000Y-97790000D01*
X158115000Y-97790000D02*
X151130000Y-97790000D01*
X168257028Y-97770624D02*
X163195000Y-97790000D01*
X194927028Y-97770624D02*
X168257028Y-97770624D01*
X194927028Y-92690624D02*
X194927028Y-97770624D01*
X219692028Y-92690624D02*
X194927028Y-92690624D01*
X224772028Y-92690624D02*
X219692028Y-92690624D01*
X229852028Y-92690624D02*
X224772028Y-92690624D01*
X229852028Y-107930624D02*
X229852028Y-92690624D01*
X144145000Y-97790000D02*
X151130000Y-97790000D01*
X141605000Y-95250000D02*
X144145000Y-97790000D01*
X139065000Y-97790000D02*
X141605000Y-95250000D01*
X133985000Y-97790000D02*
X139065000Y-97790000D01*
X107315000Y-97790000D02*
X133985000Y-97790000D01*
X107315000Y-92710000D02*
X107315000Y-97790000D01*
X82550000Y-92710000D02*
X107315000Y-92710000D01*
X77470000Y-92710000D02*
X82550000Y-92710000D01*
X72390000Y-92710000D02*
X77470000Y-92710000D01*
X72390000Y-107950000D02*
X72390000Y-92710000D01*
X72390000Y-121920000D02*
X72390000Y-107950000D01*
X72390000Y-136525000D02*
X72390000Y-121920000D01*
X72390000Y-136525000D02*
X229870000Y-136525000D01*
M02*
