M48
;DRILL file {KiCad (5.0.2)-1} date 22/03/2019 12:58:24
;FORMAT={-:-/ absolute / inch / decimal}
FMAT,2
INCH,TZ
T1C0.0157
T2C0.0315
T3C0.0354
T4C0.0394
T5C0.0630
%
G90
G05
T1
X3.25Y-4.5
X8.025Y-5.125
X8.525Y-4.05
T2
X8.025Y-4.25
X8.025Y-4.35
X8.025Y-4.45
X8.025Y-4.55
X8.025Y-4.65
X8.025Y-4.75
X8.025Y-4.85
X8.025Y-4.95
X8.525Y-4.25
X8.525Y-4.35
X8.525Y-4.45
X8.525Y-4.55
X8.525Y-4.65
X8.525Y-4.75
X8.525Y-4.85
X8.525Y-4.95
T3
X7.75Y-4.325
X7.75Y-4.425
T5
X3.675Y-4.5793
T4
X3.4978Y-4.4711G85X3.4978Y-4.5301
G05
X3.6356Y-4.225G85X3.7144Y-4.225
G05
X3.6494Y-4.4612G85X3.7006Y-4.4612
G05
X3.8522Y-4.4711G85X3.8522Y-4.5301
G05
T0
M30
