G04 #@! TF.GenerationSoftware,KiCad,Pcbnew,(5.0.2)-1*
G04 #@! TF.CreationDate,2019-03-22T12:57:49+00:00*
G04 #@! TF.ProjectId,PCBStencil,50434253-7465-46e6-9369-6c2e6b696361,1.0*
G04 #@! TF.SameCoordinates,Original*
G04 #@! TF.FileFunction,Legend,Bot*
G04 #@! TF.FilePolarity,Positive*
%FSLAX46Y46*%
G04 Gerber Fmt 4.6, Leading zero omitted, Abs format (unit mm)*
G04 Created by KiCad (PCBNEW (5.0.2)-1) date 22/03/2019 12:57:49*
%MOMM*%
%LPD*%
G01*
G04 APERTURE LIST*
%ADD10C,0.300000*%
%ADD11C,1.000000*%
G04 APERTURE END LIST*
D10*
X180126428Y-127448571D02*
X179269285Y-127448571D01*
X179885357Y-128948571D02*
X179697857Y-127448571D01*
X178956785Y-128948571D02*
X178831785Y-127948571D01*
X178867500Y-128234285D02*
X178778214Y-128091428D01*
X178697857Y-128020000D01*
X178546071Y-127948571D01*
X178403214Y-127948571D01*
X177385357Y-128948571D02*
X177287142Y-128162857D01*
X177340714Y-128020000D01*
X177474642Y-127948571D01*
X177760357Y-127948571D01*
X177912142Y-128020000D01*
X177376428Y-128877142D02*
X177528214Y-128948571D01*
X177885357Y-128948571D01*
X178019285Y-128877142D01*
X178072857Y-128734285D01*
X178055000Y-128591428D01*
X177965714Y-128448571D01*
X177813928Y-128377142D01*
X177456785Y-128377142D01*
X177305000Y-128305714D01*
X176019285Y-128877142D02*
X176171071Y-128948571D01*
X176456785Y-128948571D01*
X176590714Y-128877142D01*
X176653214Y-128805714D01*
X176706785Y-128662857D01*
X176653214Y-128234285D01*
X176563928Y-128091428D01*
X176483571Y-128020000D01*
X176331785Y-127948571D01*
X176046071Y-127948571D01*
X175912142Y-128020000D01*
X174805000Y-128877142D02*
X174956785Y-128948571D01*
X175242500Y-128948571D01*
X175376428Y-128877142D01*
X175430000Y-128734285D01*
X175358571Y-128162857D01*
X175269285Y-128020000D01*
X175117500Y-127948571D01*
X174831785Y-127948571D01*
X174697857Y-128020000D01*
X174644285Y-128162857D01*
X174662142Y-128305714D01*
X175394285Y-128448571D01*
X172956785Y-128948571D02*
X172831785Y-127948571D01*
X172849642Y-128091428D02*
X172769285Y-128020000D01*
X172617500Y-127948571D01*
X172403214Y-127948571D01*
X172269285Y-128020000D01*
X172215714Y-128162857D01*
X172313928Y-128948571D01*
X172215714Y-128162857D02*
X172126428Y-128020000D01*
X171974642Y-127948571D01*
X171760357Y-127948571D01*
X171626428Y-128020000D01*
X171572857Y-128162857D01*
X171671071Y-128948571D01*
X170974642Y-127948571D02*
X170742500Y-128948571D01*
X170260357Y-127948571D02*
X170742500Y-128948571D01*
X170930000Y-129305714D01*
X171010357Y-129377142D01*
X171162142Y-129448571D01*
X168733571Y-128877142D02*
X168599642Y-128948571D01*
X168313928Y-128948571D01*
X168162142Y-128877142D01*
X168072857Y-128734285D01*
X168063928Y-128662857D01*
X168117500Y-128520000D01*
X168251428Y-128448571D01*
X168465714Y-128448571D01*
X168599642Y-128377142D01*
X168653214Y-128234285D01*
X168644285Y-128162857D01*
X168555000Y-128020000D01*
X168403214Y-127948571D01*
X168188928Y-127948571D01*
X168055000Y-128020000D01*
X167546071Y-127948571D02*
X166974642Y-127948571D01*
X167269285Y-127448571D02*
X167430000Y-128734285D01*
X167376428Y-128877142D01*
X167242500Y-128948571D01*
X167099642Y-128948571D01*
X166019285Y-128877142D02*
X166171071Y-128948571D01*
X166456785Y-128948571D01*
X166590714Y-128877142D01*
X166644285Y-128734285D01*
X166572857Y-128162857D01*
X166483571Y-128020000D01*
X166331785Y-127948571D01*
X166046071Y-127948571D01*
X165912142Y-128020000D01*
X165858571Y-128162857D01*
X165876428Y-128305714D01*
X166608571Y-128448571D01*
X165188928Y-127948571D02*
X165376428Y-129448571D01*
X165197857Y-128020000D02*
X165046071Y-127948571D01*
X164760357Y-127948571D01*
X164626428Y-128020000D01*
X164563928Y-128091428D01*
X164510357Y-128234285D01*
X164563928Y-128662857D01*
X164653214Y-128805714D01*
X164733571Y-128877142D01*
X164885357Y-128948571D01*
X165171071Y-128948571D01*
X165305000Y-128877142D01*
X164019285Y-128877142D02*
X163885357Y-128948571D01*
X163599642Y-128948571D01*
X163447857Y-128877142D01*
X163358571Y-128734285D01*
X163349642Y-128662857D01*
X163403214Y-128520000D01*
X163537142Y-128448571D01*
X163751428Y-128448571D01*
X163885357Y-128377142D01*
X163938928Y-128234285D01*
X163930000Y-128162857D01*
X163840714Y-128020000D01*
X163688928Y-127948571D01*
X163474642Y-127948571D01*
X163340714Y-128020000D01*
X161688928Y-127948571D02*
X161117500Y-127948571D01*
X161412142Y-127448571D02*
X161572857Y-128734285D01*
X161519285Y-128877142D01*
X161385357Y-128948571D01*
X161242500Y-128948571D01*
X160528214Y-128948571D02*
X160662142Y-128877142D01*
X160724642Y-128805714D01*
X160778214Y-128662857D01*
X160724642Y-128234285D01*
X160635357Y-128091428D01*
X160555000Y-128020000D01*
X160403214Y-127948571D01*
X160188928Y-127948571D01*
X160055000Y-128020000D01*
X159992500Y-128091428D01*
X159938928Y-128234285D01*
X159992500Y-128662857D01*
X160081785Y-128805714D01*
X160162142Y-128877142D01*
X160313928Y-128948571D01*
X160528214Y-128948571D01*
X158331785Y-127948571D02*
X157760357Y-127948571D01*
X158242500Y-128948571D02*
X158081785Y-127662857D01*
X157992500Y-127520000D01*
X157840714Y-127448571D01*
X157697857Y-127448571D01*
X157385357Y-128948571D02*
X157260357Y-127948571D01*
X157197857Y-127448571D02*
X157278214Y-127520000D01*
X157215714Y-127591428D01*
X157135357Y-127520000D01*
X157197857Y-127448571D01*
X157215714Y-127591428D01*
X156546071Y-127948571D02*
X156671071Y-128948571D01*
X156563928Y-128091428D02*
X156483571Y-128020000D01*
X156331785Y-127948571D01*
X156117500Y-127948571D01*
X155983571Y-128020000D01*
X155930000Y-128162857D01*
X156028214Y-128948571D01*
X154671071Y-128948571D02*
X154483571Y-127448571D01*
X154662142Y-128877142D02*
X154813928Y-128948571D01*
X155099642Y-128948571D01*
X155233571Y-128877142D01*
X155296071Y-128805714D01*
X155349642Y-128662857D01*
X155296071Y-128234285D01*
X155206785Y-128091428D01*
X155126428Y-128020000D01*
X154974642Y-127948571D01*
X154688928Y-127948571D01*
X154555000Y-128020000D01*
X152813928Y-128948571D02*
X152688928Y-127948571D01*
X152706785Y-128091428D02*
X152626428Y-128020000D01*
X152474642Y-127948571D01*
X152260357Y-127948571D01*
X152126428Y-128020000D01*
X152072857Y-128162857D01*
X152171071Y-128948571D01*
X152072857Y-128162857D02*
X151983571Y-128020000D01*
X151831785Y-127948571D01*
X151617500Y-127948571D01*
X151483571Y-128020000D01*
X151430000Y-128162857D01*
X151528214Y-128948571D01*
X150831785Y-127948571D02*
X150599642Y-128948571D01*
X150117500Y-127948571D02*
X150599642Y-128948571D01*
X150787142Y-129305714D01*
X150867500Y-129377142D01*
X151019285Y-129448571D01*
X148313928Y-128948571D02*
X148447857Y-128877142D01*
X148510357Y-128805714D01*
X148563928Y-128662857D01*
X148510357Y-128234285D01*
X148421071Y-128091428D01*
X148340714Y-128020000D01*
X148188928Y-127948571D01*
X147974642Y-127948571D01*
X147840714Y-128020000D01*
X147778214Y-128091428D01*
X147724642Y-128234285D01*
X147778214Y-128662857D01*
X147867500Y-128805714D01*
X147947857Y-128877142D01*
X148099642Y-128948571D01*
X148313928Y-128948571D01*
X147260357Y-127948571D02*
X146688928Y-127948571D01*
X147171071Y-128948571D02*
X147010357Y-127662857D01*
X146921071Y-127520000D01*
X146769285Y-127448571D01*
X146626428Y-127448571D01*
X146403214Y-127948571D02*
X145831785Y-127948571D01*
X146313928Y-128948571D02*
X146153214Y-127662857D01*
X146063928Y-127520000D01*
X145912142Y-127448571D01*
X145769285Y-127448571D01*
X145456785Y-128948571D02*
X145331785Y-127948571D01*
X145269285Y-127448571D02*
X145349642Y-127520000D01*
X145287142Y-127591428D01*
X145206785Y-127520000D01*
X145269285Y-127448571D01*
X145287142Y-127591428D01*
X144090714Y-128877142D02*
X144242500Y-128948571D01*
X144528214Y-128948571D01*
X144662142Y-128877142D01*
X144724642Y-128805714D01*
X144778214Y-128662857D01*
X144724642Y-128234285D01*
X144635357Y-128091428D01*
X144555000Y-128020000D01*
X144403214Y-127948571D01*
X144117500Y-127948571D01*
X143983571Y-128020000D01*
X142876428Y-128877142D02*
X143028214Y-128948571D01*
X143313928Y-128948571D01*
X143447857Y-128877142D01*
X143501428Y-128734285D01*
X143430000Y-128162857D01*
X143340714Y-128020000D01*
X143188928Y-127948571D01*
X142903214Y-127948571D01*
X142769285Y-128020000D01*
X142715714Y-128162857D01*
X142733571Y-128305714D01*
X143465714Y-128448571D01*
X140385357Y-128948571D02*
X140287142Y-128162857D01*
X140340714Y-128020000D01*
X140474642Y-127948571D01*
X140760357Y-127948571D01*
X140912142Y-128020000D01*
X140376428Y-128877142D02*
X140528214Y-128948571D01*
X140885357Y-128948571D01*
X141019285Y-128877142D01*
X141072857Y-128734285D01*
X141055000Y-128591428D01*
X140965714Y-128448571D01*
X140813928Y-128377142D01*
X140456785Y-128377142D01*
X140305000Y-128305714D01*
X139546071Y-127948571D02*
X139671071Y-128948571D01*
X139563928Y-128091428D02*
X139483571Y-128020000D01*
X139331785Y-127948571D01*
X139117500Y-127948571D01*
X138983571Y-128020000D01*
X138930000Y-128162857D01*
X139028214Y-128948571D01*
X137671071Y-128948571D02*
X137483571Y-127448571D01*
X137662142Y-128877142D02*
X137813928Y-128948571D01*
X138099642Y-128948571D01*
X138233571Y-128877142D01*
X138296071Y-128805714D01*
X138349642Y-128662857D01*
X138296071Y-128234285D01*
X138206785Y-128091428D01*
X138126428Y-128020000D01*
X137974642Y-127948571D01*
X137688928Y-127948571D01*
X137555000Y-128020000D01*
X135831785Y-127948571D02*
X135671071Y-128948571D01*
X135296071Y-128234285D01*
X135099642Y-128948571D01*
X134688928Y-127948571D01*
X134028214Y-128948571D02*
X134162142Y-128877142D01*
X134224642Y-128805714D01*
X134278214Y-128662857D01*
X134224642Y-128234285D01*
X134135357Y-128091428D01*
X134055000Y-128020000D01*
X133903214Y-127948571D01*
X133688928Y-127948571D01*
X133555000Y-128020000D01*
X133492500Y-128091428D01*
X133438928Y-128234285D01*
X133492500Y-128662857D01*
X133581785Y-128805714D01*
X133662142Y-128877142D01*
X133813928Y-128948571D01*
X134028214Y-128948571D01*
X132885357Y-128948571D02*
X132760357Y-127948571D01*
X132796071Y-128234285D02*
X132706785Y-128091428D01*
X132626428Y-128020000D01*
X132474642Y-127948571D01*
X132331785Y-127948571D01*
X131956785Y-128948571D02*
X131769285Y-127448571D01*
X131742500Y-128377142D02*
X131385357Y-128948571D01*
X131260357Y-127948571D02*
X131903214Y-128520000D01*
X130805000Y-128877142D02*
X130671071Y-128948571D01*
X130385357Y-128948571D01*
X130233571Y-128877142D01*
X130144285Y-128734285D01*
X130135357Y-128662857D01*
X130188928Y-128520000D01*
X130322857Y-128448571D01*
X130537142Y-128448571D01*
X130671071Y-128377142D01*
X130724642Y-128234285D01*
X130715714Y-128162857D01*
X130626428Y-128020000D01*
X130474642Y-127948571D01*
X130260357Y-127948571D01*
X130126428Y-128020000D01*
X129617500Y-127948571D02*
X129046071Y-127948571D01*
X129340714Y-127448571D02*
X129501428Y-128734285D01*
X129447857Y-128877142D01*
X129313928Y-128948571D01*
X129171071Y-128948571D01*
X128028214Y-128948571D02*
X127930000Y-128162857D01*
X127983571Y-128020000D01*
X128117500Y-127948571D01*
X128403214Y-127948571D01*
X128555000Y-128020000D01*
X128019285Y-128877142D02*
X128171071Y-128948571D01*
X128528214Y-128948571D01*
X128662142Y-128877142D01*
X128715714Y-128734285D01*
X128697857Y-128591428D01*
X128608571Y-128448571D01*
X128456785Y-128377142D01*
X128099642Y-128377142D01*
X127947857Y-128305714D01*
X127403214Y-127948571D02*
X126831785Y-127948571D01*
X127126428Y-127448571D02*
X127287142Y-128734285D01*
X127233571Y-128877142D01*
X127099642Y-128948571D01*
X126956785Y-128948571D01*
X126456785Y-128948571D02*
X126331785Y-127948571D01*
X126269285Y-127448571D02*
X126349642Y-127520000D01*
X126287142Y-127591428D01*
X126206785Y-127520000D01*
X126269285Y-127448571D01*
X126287142Y-127591428D01*
X125528214Y-128948571D02*
X125662142Y-128877142D01*
X125724642Y-128805714D01*
X125778214Y-128662857D01*
X125724642Y-128234285D01*
X125635357Y-128091428D01*
X125555000Y-128020000D01*
X125403214Y-127948571D01*
X125188928Y-127948571D01*
X125055000Y-128020000D01*
X124992500Y-128091428D01*
X124938928Y-128234285D01*
X124992500Y-128662857D01*
X125081785Y-128805714D01*
X125162142Y-128877142D01*
X125313928Y-128948571D01*
X125528214Y-128948571D01*
X124260357Y-127948571D02*
X124385357Y-128948571D01*
X124278214Y-128091428D02*
X124197857Y-128020000D01*
X124046071Y-127948571D01*
X123831785Y-127948571D01*
X123697857Y-128020000D01*
X123644285Y-128162857D01*
X123742500Y-128948571D01*
D11*
X175495000Y-109216904D02*
X172637857Y-109216904D01*
X174066428Y-114216904D02*
X174066428Y-109216904D01*
X170971190Y-114216904D02*
X170971190Y-110883571D01*
X170971190Y-111835952D02*
X170733095Y-111359761D01*
X170495000Y-111121666D01*
X170018809Y-110883571D01*
X169542619Y-110883571D01*
X165733095Y-114216904D02*
X165733095Y-111597857D01*
X165971190Y-111121666D01*
X166447380Y-110883571D01*
X167399761Y-110883571D01*
X167875952Y-111121666D01*
X165733095Y-113978809D02*
X166209285Y-114216904D01*
X167399761Y-114216904D01*
X167875952Y-113978809D01*
X168114047Y-113502619D01*
X168114047Y-113026428D01*
X167875952Y-112550238D01*
X167399761Y-112312142D01*
X166209285Y-112312142D01*
X165733095Y-112074047D01*
X161209285Y-113978809D02*
X161685476Y-114216904D01*
X162637857Y-114216904D01*
X163114047Y-113978809D01*
X163352142Y-113740714D01*
X163590238Y-113264523D01*
X163590238Y-111835952D01*
X163352142Y-111359761D01*
X163114047Y-111121666D01*
X162637857Y-110883571D01*
X161685476Y-110883571D01*
X161209285Y-111121666D01*
X159066428Y-114216904D02*
X159066428Y-110883571D01*
X159066428Y-109216904D02*
X159304523Y-109455000D01*
X159066428Y-109693095D01*
X158828333Y-109455000D01*
X159066428Y-109216904D01*
X159066428Y-109693095D01*
X154780714Y-113978809D02*
X155256904Y-114216904D01*
X156209285Y-114216904D01*
X156685476Y-113978809D01*
X156923571Y-113502619D01*
X156923571Y-111597857D01*
X156685476Y-111121666D01*
X156209285Y-110883571D01*
X155256904Y-110883571D01*
X154780714Y-111121666D01*
X154542619Y-111597857D01*
X154542619Y-112074047D01*
X156923571Y-112550238D01*
X147637857Y-109216904D02*
X146685476Y-109216904D01*
X146209285Y-109455000D01*
X145733095Y-109931190D01*
X145495000Y-110883571D01*
X145495000Y-112550238D01*
X145733095Y-113502619D01*
X146209285Y-113978809D01*
X146685476Y-114216904D01*
X147637857Y-114216904D01*
X148114047Y-113978809D01*
X148590238Y-113502619D01*
X148828333Y-112550238D01*
X148828333Y-110883571D01*
X148590238Y-109931190D01*
X148114047Y-109455000D01*
X147637857Y-109216904D01*
X143114047Y-109216904D02*
X143590238Y-110169285D01*
X140971190Y-114216904D02*
X140971190Y-109216904D01*
X138114047Y-114216904D01*
X138114047Y-109216904D01*
X133828333Y-113978809D02*
X134304523Y-114216904D01*
X135256904Y-114216904D01*
X135733095Y-113978809D01*
X135971190Y-113502619D01*
X135971190Y-111597857D01*
X135733095Y-111121666D01*
X135256904Y-110883571D01*
X134304523Y-110883571D01*
X133828333Y-111121666D01*
X133590238Y-111597857D01*
X133590238Y-112074047D01*
X135971190Y-112550238D01*
X131447380Y-114216904D02*
X131447380Y-110883571D01*
X131447380Y-109216904D02*
X131685476Y-109455000D01*
X131447380Y-109693095D01*
X131209285Y-109455000D01*
X131447380Y-109216904D01*
X131447380Y-109693095D01*
X128352142Y-114216904D02*
X128828333Y-113978809D01*
X129066428Y-113502619D01*
X129066428Y-109216904D01*
X125733095Y-114216904D02*
X126209285Y-113978809D01*
X126447380Y-113502619D01*
X126447380Y-109216904D01*
X190137857Y-122716904D02*
X190137857Y-117716904D01*
X190137857Y-120097857D02*
X187280714Y-120097857D01*
X187280714Y-122716904D02*
X187280714Y-117716904D01*
X182756904Y-122716904D02*
X182756904Y-120097857D01*
X182995000Y-119621666D01*
X183471190Y-119383571D01*
X184423571Y-119383571D01*
X184899761Y-119621666D01*
X182756904Y-122478809D02*
X183233095Y-122716904D01*
X184423571Y-122716904D01*
X184899761Y-122478809D01*
X185137857Y-122002619D01*
X185137857Y-121526428D01*
X184899761Y-121050238D01*
X184423571Y-120812142D01*
X183233095Y-120812142D01*
X182756904Y-120574047D01*
X178233095Y-122478809D02*
X178709285Y-122716904D01*
X179661666Y-122716904D01*
X180137857Y-122478809D01*
X180375952Y-122240714D01*
X180614047Y-121764523D01*
X180614047Y-120335952D01*
X180375952Y-119859761D01*
X180137857Y-119621666D01*
X179661666Y-119383571D01*
X178709285Y-119383571D01*
X178233095Y-119621666D01*
X176090238Y-122716904D02*
X176090238Y-117716904D01*
X175614047Y-120812142D02*
X174185476Y-122716904D01*
X174185476Y-119383571D02*
X176090238Y-121288333D01*
X170137857Y-122478809D02*
X170614047Y-122716904D01*
X171566428Y-122716904D01*
X172042619Y-122478809D01*
X172280714Y-122002619D01*
X172280714Y-120097857D01*
X172042619Y-119621666D01*
X171566428Y-119383571D01*
X170614047Y-119383571D01*
X170137857Y-119621666D01*
X169899761Y-120097857D01*
X169899761Y-120574047D01*
X172280714Y-121050238D01*
X167756904Y-122716904D02*
X167756904Y-119383571D01*
X167756904Y-120335952D02*
X167518809Y-119859761D01*
X167280714Y-119621666D01*
X166804523Y-119383571D01*
X166328333Y-119383571D01*
X160852142Y-120097857D02*
X159185476Y-120097857D01*
X158471190Y-122716904D02*
X160852142Y-122716904D01*
X160852142Y-117716904D01*
X158471190Y-117716904D01*
X156804523Y-122716904D02*
X154185476Y-119383571D01*
X156804523Y-119383571D02*
X154185476Y-122716904D01*
X152995000Y-119383571D02*
X151090238Y-119383571D01*
X152280714Y-117716904D02*
X152280714Y-122002619D01*
X152042619Y-122478809D01*
X151566428Y-122716904D01*
X151090238Y-122716904D01*
X149423571Y-122716904D02*
X149423571Y-119383571D01*
X149423571Y-120335952D02*
X149185476Y-119859761D01*
X148947380Y-119621666D01*
X148471190Y-119383571D01*
X147995000Y-119383571D01*
X144185476Y-122716904D02*
X144185476Y-120097857D01*
X144423571Y-119621666D01*
X144899761Y-119383571D01*
X145852142Y-119383571D01*
X146328333Y-119621666D01*
X144185476Y-122478809D02*
X144661666Y-122716904D01*
X145852142Y-122716904D01*
X146328333Y-122478809D01*
X146566428Y-122002619D01*
X146566428Y-121526428D01*
X146328333Y-121050238D01*
X145852142Y-120812142D01*
X144661666Y-120812142D01*
X144185476Y-120574047D01*
X141090238Y-122716904D02*
X141566428Y-122478809D01*
X141804523Y-122240714D01*
X142042619Y-121764523D01*
X142042619Y-120335952D01*
X141804523Y-119859761D01*
X141566428Y-119621666D01*
X141090238Y-119383571D01*
X140375952Y-119383571D01*
X139899761Y-119621666D01*
X139661666Y-119859761D01*
X139423571Y-120335952D01*
X139423571Y-121764523D01*
X139661666Y-122240714D01*
X139899761Y-122478809D01*
X140375952Y-122716904D01*
X141090238Y-122716904D01*
X137280714Y-122716904D02*
X137280714Y-119383571D01*
X137280714Y-120335952D02*
X137042619Y-119859761D01*
X136804523Y-119621666D01*
X136328333Y-119383571D01*
X135852142Y-119383571D01*
X132042619Y-122716904D02*
X132042619Y-117716904D01*
X132042619Y-122478809D02*
X132518809Y-122716904D01*
X133471190Y-122716904D01*
X133947380Y-122478809D01*
X134185476Y-122240714D01*
X134423571Y-121764523D01*
X134423571Y-120335952D01*
X134185476Y-119859761D01*
X133947380Y-119621666D01*
X133471190Y-119383571D01*
X132518809Y-119383571D01*
X132042619Y-119621666D01*
X129661666Y-122716904D02*
X129661666Y-119383571D01*
X129661666Y-117716904D02*
X129899761Y-117955000D01*
X129661666Y-118193095D01*
X129423571Y-117955000D01*
X129661666Y-117716904D01*
X129661666Y-118193095D01*
X127280714Y-119383571D02*
X127280714Y-122716904D01*
X127280714Y-119859761D02*
X127042619Y-119621666D01*
X126566428Y-119383571D01*
X125852142Y-119383571D01*
X125375952Y-119621666D01*
X125137857Y-120097857D01*
X125137857Y-122716904D01*
X120614047Y-122716904D02*
X120614047Y-120097857D01*
X120852142Y-119621666D01*
X121328333Y-119383571D01*
X122280714Y-119383571D01*
X122756904Y-119621666D01*
X120614047Y-122478809D02*
X121090238Y-122716904D01*
X122280714Y-122716904D01*
X122756904Y-122478809D01*
X122995000Y-122002619D01*
X122995000Y-121526428D01*
X122756904Y-121050238D01*
X122280714Y-120812142D01*
X121090238Y-120812142D01*
X120614047Y-120574047D01*
X118233095Y-122716904D02*
X118233095Y-119383571D01*
X118233095Y-117716904D02*
X118471190Y-117955000D01*
X118233095Y-118193095D01*
X117995000Y-117955000D01*
X118233095Y-117716904D01*
X118233095Y-118193095D01*
X115852142Y-122716904D02*
X115852142Y-119383571D01*
X115852142Y-120335952D02*
X115614047Y-119859761D01*
X115375952Y-119621666D01*
X114899761Y-119383571D01*
X114423571Y-119383571D01*
X110852142Y-122478809D02*
X111328333Y-122716904D01*
X112280714Y-122716904D01*
X112756904Y-122478809D01*
X112995000Y-122002619D01*
X112995000Y-120097857D01*
X112756904Y-119621666D01*
X112280714Y-119383571D01*
X111328333Y-119383571D01*
X110852142Y-119621666D01*
X110614047Y-120097857D01*
X110614047Y-120574047D01*
X112995000Y-121050238D01*
M02*
