G04 #@! TF.GenerationSoftware,KiCad,Pcbnew,(5.0.2)-1*
G04 #@! TF.CreationDate,2019-02-20T13:19:55+00:00*
G04 #@! TF.ProjectId,SplitAudio,53706c69-7441-4756-9469-6f2e6b696361,rev?*
G04 #@! TF.SameCoordinates,Original*
G04 #@! TF.FileFunction,Legend,Bot*
G04 #@! TF.FilePolarity,Positive*
%FSLAX46Y46*%
G04 Gerber Fmt 4.6, Leading zero omitted, Abs format (unit mm)*
G04 Created by KiCad (PCBNEW (5.0.2)-1) date 20/02/2019 13:19:55*
%MOMM*%
%LPD*%
G01*
G04 APERTURE LIST*
%ADD10C,1.200000*%
%ADD11C,0.150000*%
G04 APERTURE END LIST*
D10*
X174542619Y-50073809D02*
X174542619Y-40073809D01*
X174542619Y-44835714D02*
X168828333Y-44835714D01*
X168828333Y-50073809D02*
X168828333Y-40073809D01*
X159780714Y-50073809D02*
X159780714Y-44835714D01*
X160256904Y-43883333D01*
X161209285Y-43407142D01*
X163114047Y-43407142D01*
X164066428Y-43883333D01*
X159780714Y-49597619D02*
X160733095Y-50073809D01*
X163114047Y-50073809D01*
X164066428Y-49597619D01*
X164542619Y-48645238D01*
X164542619Y-47692857D01*
X164066428Y-46740476D01*
X163114047Y-46264285D01*
X160733095Y-46264285D01*
X159780714Y-45788095D01*
X149304523Y-49121428D02*
X149780714Y-49597619D01*
X151209285Y-50073809D01*
X152161666Y-50073809D01*
X153590238Y-49597619D01*
X154542619Y-48645238D01*
X155018809Y-47692857D01*
X155495000Y-45788095D01*
X155495000Y-44359523D01*
X155018809Y-42454761D01*
X154542619Y-41502380D01*
X153590238Y-40550000D01*
X152161666Y-40073809D01*
X151209285Y-40073809D01*
X149780714Y-40550000D01*
X149304523Y-41026190D01*
X145018809Y-50073809D02*
X145018809Y-40073809D01*
X144066428Y-46264285D02*
X141209285Y-50073809D01*
X141209285Y-43407142D02*
X145018809Y-47216666D01*
X136923571Y-44835714D02*
X133590238Y-44835714D01*
X132161666Y-50073809D02*
X136923571Y-50073809D01*
X136923571Y-40073809D01*
X132161666Y-40073809D01*
X127875952Y-50073809D02*
X127875952Y-43407142D01*
X127875952Y-45311904D02*
X127399761Y-44359523D01*
X126923571Y-43883333D01*
X125971190Y-43407142D01*
X125018809Y-43407142D01*
X184304523Y-98197619D02*
X182875952Y-98673809D01*
X180495000Y-98673809D01*
X179542619Y-98197619D01*
X179066428Y-97721428D01*
X178590238Y-96769047D01*
X178590238Y-95816666D01*
X179066428Y-94864285D01*
X179542619Y-94388095D01*
X180495000Y-93911904D01*
X182399761Y-93435714D01*
X183352142Y-92959523D01*
X183828333Y-92483333D01*
X184304523Y-91530952D01*
X184304523Y-90578571D01*
X183828333Y-89626190D01*
X183352142Y-89150000D01*
X182399761Y-88673809D01*
X180018809Y-88673809D01*
X178590238Y-89150000D01*
X174304523Y-98673809D02*
X174304523Y-88673809D01*
X170495000Y-88673809D01*
X169542619Y-89150000D01*
X169066428Y-89626190D01*
X168590238Y-90578571D01*
X168590238Y-92007142D01*
X169066428Y-92959523D01*
X169542619Y-93435714D01*
X170495000Y-93911904D01*
X174304523Y-93911904D01*
X164780714Y-95816666D02*
X160018809Y-95816666D01*
X165733095Y-98673809D02*
X162399761Y-88673809D01*
X159066428Y-98673809D01*
X150018809Y-98673809D02*
X153352142Y-93911904D01*
X155733095Y-98673809D02*
X155733095Y-88673809D01*
X151923571Y-88673809D01*
X150971190Y-89150000D01*
X150495000Y-89626190D01*
X150018809Y-90578571D01*
X150018809Y-92007142D01*
X150495000Y-92959523D01*
X150971190Y-93435714D01*
X151923571Y-93911904D01*
X155733095Y-93911904D01*
X145733095Y-98673809D02*
X145733095Y-88673809D01*
X140018809Y-98673809D02*
X144304523Y-92959523D01*
X140018809Y-88673809D02*
X145733095Y-94388095D01*
X135733095Y-98673809D02*
X135733095Y-88673809D01*
X130971190Y-93435714D02*
X127637857Y-93435714D01*
X126209285Y-98673809D02*
X130971190Y-98673809D01*
X130971190Y-88673809D01*
X126209285Y-88673809D01*
X122399761Y-98197619D02*
X120971190Y-98673809D01*
X118590238Y-98673809D01*
X117637857Y-98197619D01*
X117161666Y-97721428D01*
X116685476Y-96769047D01*
X116685476Y-95816666D01*
X117161666Y-94864285D01*
X117637857Y-94388095D01*
X118590238Y-93911904D01*
X120495000Y-93435714D01*
X121447380Y-92959523D01*
X121923571Y-92483333D01*
X122399761Y-91530952D01*
X122399761Y-90578571D01*
X121923571Y-89626190D01*
X121447380Y-89150000D01*
X120495000Y-88673809D01*
X118114047Y-88673809D01*
X116685476Y-89150000D01*
D11*
G36*
X146050000Y-59055000D02*
X155575000Y-59055000D01*
X149860000Y-71120000D01*
X156210000Y-69215000D01*
X145415000Y-85090000D01*
X149860000Y-74295000D01*
X146050000Y-76200000D01*
X146050000Y-59055000D01*
G37*
X146050000Y-59055000D02*
X155575000Y-59055000D01*
X149860000Y-71120000D01*
X156210000Y-69215000D01*
X145415000Y-85090000D01*
X149860000Y-74295000D01*
X146050000Y-76200000D01*
X146050000Y-59055000D01*
M02*
