G04 #@! TF.GenerationSoftware,KiCad,Pcbnew,(5.0.2)-1*
G04 #@! TF.CreationDate,2019-02-20T13:19:55+00:00*
G04 #@! TF.ProjectId,SplitAudio,53706c69-7441-4756-9469-6f2e6b696361,rev?*
G04 #@! TF.SameCoordinates,Original*
G04 #@! TF.FileFunction,Legend,Top*
G04 #@! TF.FilePolarity,Positive*
%FSLAX46Y46*%
G04 Gerber Fmt 4.6, Leading zero omitted, Abs format (unit mm)*
G04 Created by KiCad (PCBNEW (5.0.2)-1) date 20/02/2019 13:19:55*
%MOMM*%
%LPD*%
G01*
G04 APERTURE LIST*
%ADD10C,0.200000*%
%ADD11C,0.150000*%
%ADD12C,0.120000*%
%ADD13C,0.127000*%
%ADD14C,0.050000*%
G04 APERTURE END LIST*
D10*
X150495000Y-123825000D02*
X150495000Y-127000000D01*
X184150000Y-95885000D02*
X189230000Y-96520000D01*
X186609786Y-96122957D02*
G75*
G02X150495000Y-125730000I-36114786J7222957D01*
G01*
D11*
G36*
X95250000Y-59690000D02*
X99060000Y-49530000D01*
X106680000Y-36830000D01*
X119380000Y-25400000D01*
X135255000Y-18415000D01*
X152400000Y-17145000D01*
X167640000Y-20320000D01*
X180975000Y-27940000D01*
X192405000Y-38735000D01*
X187960000Y-46355000D01*
X181610000Y-35560000D01*
X180340000Y-42545000D01*
X172085000Y-29210000D01*
X172085000Y-36830000D01*
X155575000Y-26670000D01*
X156210000Y-32385000D01*
X134620000Y-28575000D01*
X132080000Y-37465000D01*
X122555000Y-33020000D01*
X122555000Y-49530000D01*
X109855000Y-39370000D01*
X106680000Y-56515000D01*
X100965000Y-52070000D01*
X95250000Y-59690000D01*
G37*
X95250000Y-59690000D02*
X99060000Y-49530000D01*
X106680000Y-36830000D01*
X119380000Y-25400000D01*
X135255000Y-18415000D01*
X152400000Y-17145000D01*
X167640000Y-20320000D01*
X180975000Y-27940000D01*
X192405000Y-38735000D01*
X187960000Y-46355000D01*
X181610000Y-35560000D01*
X180340000Y-42545000D01*
X172085000Y-29210000D01*
X172085000Y-36830000D01*
X155575000Y-26670000D01*
X156210000Y-32385000D01*
X134620000Y-28575000D01*
X132080000Y-37465000D01*
X122555000Y-33020000D01*
X122555000Y-49530000D01*
X109855000Y-39370000D01*
X106680000Y-56515000D01*
X100965000Y-52070000D01*
X95250000Y-59690000D01*
D12*
G04 #@! TO.C,BT1*
X160575000Y-52110000D02*
X163775000Y-52110000D01*
X163775000Y-52110000D02*
X163775000Y-50560000D01*
X160575000Y-56610000D02*
X160575000Y-52110000D01*
X160575000Y-56610000D02*
X139675000Y-56610000D01*
X137875000Y-54810000D02*
X137875000Y-52110000D01*
X139675000Y-56610000D02*
X137875000Y-54810000D01*
X137875000Y-52110000D02*
X134675000Y-52110000D01*
X134675000Y-52110000D02*
X134675000Y-50560000D01*
X137875000Y-44410000D02*
X134675000Y-44410000D01*
X134675000Y-44410000D02*
X134675000Y-45960000D01*
X160575000Y-44410000D02*
X163775000Y-44410000D01*
X163775000Y-44410000D02*
X163775000Y-45960000D01*
X137875000Y-39910000D02*
X160575000Y-39910000D01*
X137875000Y-39910000D02*
X137875000Y-44410000D01*
X160575000Y-39910000D02*
X160575000Y-44410000D01*
X136225000Y-53260000D02*
X136225000Y-55260000D01*
X137225000Y-54260000D02*
X135225000Y-54260000D01*
G04 #@! TO.C,SW1*
X132849050Y-71755000D02*
G75*
G03X132849050Y-71755000I-4579050J0D01*
G01*
X134520000Y-75825000D02*
X134520000Y-77945000D01*
X134520000Y-77945000D02*
X122220000Y-77945000D01*
X122220000Y-77945000D02*
X122220000Y-75825000D01*
X122220000Y-72765000D02*
X122220000Y-70825000D01*
X122220000Y-67765000D02*
X122220000Y-65645000D01*
X122220000Y-65645000D02*
X134520000Y-65645000D01*
X134520000Y-65645000D02*
X134520000Y-67765000D01*
X134520000Y-70825000D02*
X134520000Y-72765000D01*
G04 #@! TO.C,SW2*
X163930000Y-72685000D02*
X163930000Y-70745000D01*
X163930000Y-77865000D02*
X163930000Y-75745000D01*
X176230000Y-77865000D02*
X163930000Y-77865000D01*
X176230000Y-75745000D02*
X176230000Y-77865000D01*
X176230000Y-70745000D02*
X176230000Y-72685000D01*
X176230000Y-65565000D02*
X176230000Y-67685000D01*
X163930000Y-65565000D02*
X176230000Y-65565000D01*
X163930000Y-67685000D02*
X163930000Y-65565000D01*
X174759050Y-71755000D02*
G75*
G03X174759050Y-71755000I-4579050J0D01*
G01*
D11*
G04 #@! TO.C,U1*
X140335000Y-123190000D02*
X160655000Y-123190000D01*
X160655000Y-123190000D02*
X160655000Y-102870000D01*
X160655000Y-102870000D02*
X140335000Y-102870000D01*
X140335000Y-102870000D02*
X140335000Y-123190000D01*
X151765000Y-102870000D02*
G75*
G02X149225000Y-102870000I-1270000J0D01*
G01*
X145415000Y-123190000D02*
X145415000Y-110490000D01*
X145415000Y-110490000D02*
X153035000Y-110490000D01*
X153035000Y-110490000D02*
X153035000Y-114300000D01*
X153035000Y-114300000D02*
X154305000Y-115570000D01*
X154305000Y-115570000D02*
X154305000Y-116840000D01*
X154305000Y-116840000D02*
X153035000Y-116840000D01*
X153035000Y-116840000D02*
X153035000Y-118110000D01*
X153035000Y-118110000D02*
X154305000Y-119380000D01*
X154305000Y-119380000D02*
X154305000Y-123190000D01*
D13*
G04 #@! TO.C,J1*
X201310000Y-77505000D02*
X187310000Y-77505000D01*
X187310000Y-77505000D02*
X187310000Y-66005000D01*
X187310000Y-66005000D02*
X201310000Y-66005000D01*
X201310000Y-66005000D02*
X201310000Y-68505000D01*
X201310000Y-68505000D02*
X201310000Y-74505000D01*
X201310000Y-74505000D02*
X201310000Y-77505000D01*
D10*
X199510000Y-65505000D02*
G75*
G03X199510000Y-65505000I-100000J0D01*
G01*
D13*
X201310000Y-74505000D02*
X204810000Y-74505000D01*
X204810000Y-74505000D02*
X204810000Y-68505000D01*
X204810000Y-68505000D02*
X201310000Y-68505000D01*
G04 #@! TO.C,J2*
X93640000Y-75005000D02*
X97140000Y-75005000D01*
X93640000Y-69005000D02*
X93640000Y-75005000D01*
X97140000Y-69005000D02*
X93640000Y-69005000D01*
D10*
X99140000Y-78005000D02*
G75*
G03X99140000Y-78005000I-100000J0D01*
G01*
D13*
X97140000Y-69005000D02*
X97140000Y-66005000D01*
X97140000Y-75005000D02*
X97140000Y-69005000D01*
X97140000Y-77505000D02*
X97140000Y-75005000D01*
X111140000Y-77505000D02*
X97140000Y-77505000D01*
X111140000Y-66005000D02*
X111140000Y-77505000D01*
X97140000Y-66005000D02*
X111140000Y-66005000D01*
G04 #@! TO.C,BT1*
D11*
X134314285Y-42888571D02*
X134457142Y-42936190D01*
X134504761Y-42983809D01*
X134552380Y-43079047D01*
X134552380Y-43221904D01*
X134504761Y-43317142D01*
X134457142Y-43364761D01*
X134361904Y-43412380D01*
X133980952Y-43412380D01*
X133980952Y-42412380D01*
X134314285Y-42412380D01*
X134409523Y-42460000D01*
X134457142Y-42507619D01*
X134504761Y-42602857D01*
X134504761Y-42698095D01*
X134457142Y-42793333D01*
X134409523Y-42840952D01*
X134314285Y-42888571D01*
X133980952Y-42888571D01*
X134838095Y-42412380D02*
X135409523Y-42412380D01*
X135123809Y-43412380D02*
X135123809Y-42412380D01*
X136266666Y-43412380D02*
X135695238Y-43412380D01*
X135980952Y-43412380D02*
X135980952Y-42412380D01*
X135885714Y-42555238D01*
X135790476Y-42650476D01*
X135695238Y-42698095D01*
G04 #@! TO.C,SW1*
X126936666Y-79359761D02*
X127079523Y-79407380D01*
X127317619Y-79407380D01*
X127412857Y-79359761D01*
X127460476Y-79312142D01*
X127508095Y-79216904D01*
X127508095Y-79121666D01*
X127460476Y-79026428D01*
X127412857Y-78978809D01*
X127317619Y-78931190D01*
X127127142Y-78883571D01*
X127031904Y-78835952D01*
X126984285Y-78788333D01*
X126936666Y-78693095D01*
X126936666Y-78597857D01*
X126984285Y-78502619D01*
X127031904Y-78455000D01*
X127127142Y-78407380D01*
X127365238Y-78407380D01*
X127508095Y-78455000D01*
X127841428Y-78407380D02*
X128079523Y-79407380D01*
X128270000Y-78693095D01*
X128460476Y-79407380D01*
X128698571Y-78407380D01*
X129603333Y-79407380D02*
X129031904Y-79407380D01*
X129317619Y-79407380D02*
X129317619Y-78407380D01*
X129222380Y-78550238D01*
X129127142Y-78645476D01*
X129031904Y-78693095D01*
G04 #@! TO.C,SW2*
X168846666Y-64959761D02*
X168989523Y-65007380D01*
X169227619Y-65007380D01*
X169322857Y-64959761D01*
X169370476Y-64912142D01*
X169418095Y-64816904D01*
X169418095Y-64721666D01*
X169370476Y-64626428D01*
X169322857Y-64578809D01*
X169227619Y-64531190D01*
X169037142Y-64483571D01*
X168941904Y-64435952D01*
X168894285Y-64388333D01*
X168846666Y-64293095D01*
X168846666Y-64197857D01*
X168894285Y-64102619D01*
X168941904Y-64055000D01*
X169037142Y-64007380D01*
X169275238Y-64007380D01*
X169418095Y-64055000D01*
X169751428Y-64007380D02*
X169989523Y-65007380D01*
X170180000Y-64293095D01*
X170370476Y-65007380D01*
X170608571Y-64007380D01*
X170941904Y-64102619D02*
X170989523Y-64055000D01*
X171084761Y-64007380D01*
X171322857Y-64007380D01*
X171418095Y-64055000D01*
X171465714Y-64102619D01*
X171513333Y-64197857D01*
X171513333Y-64293095D01*
X171465714Y-64435952D01*
X170894285Y-65007380D01*
X171513333Y-65007380D01*
G04 #@! TO.C,U1*
X149733095Y-101552380D02*
X149733095Y-102361904D01*
X149780714Y-102457142D01*
X149828333Y-102504761D01*
X149923571Y-102552380D01*
X150114047Y-102552380D01*
X150209285Y-102504761D01*
X150256904Y-102457142D01*
X150304523Y-102361904D01*
X150304523Y-101552380D01*
X151304523Y-102552380D02*
X150733095Y-102552380D01*
X151018809Y-102552380D02*
X151018809Y-101552380D01*
X150923571Y-101695238D01*
X150828333Y-101790476D01*
X150733095Y-101838095D01*
G04 #@! TO.C,J1*
D14*
X199673615Y-77963867D02*
X199673615Y-78421227D01*
X199643124Y-78512699D01*
X199582143Y-78573680D01*
X199490671Y-78604171D01*
X199429690Y-78604171D01*
X200313919Y-78604171D02*
X199948031Y-78604171D01*
X200130975Y-78604171D02*
X200130975Y-77963867D01*
X200069994Y-78055339D01*
X200009012Y-78116320D01*
X199948031Y-78146811D01*
X196562821Y-64354467D02*
X196959358Y-64354467D01*
X196745838Y-64598490D01*
X196837347Y-64598490D01*
X196898352Y-64628992D01*
X196928855Y-64659495D01*
X196959358Y-64720501D01*
X196959358Y-64873015D01*
X196928855Y-64934021D01*
X196898352Y-64964523D01*
X196837347Y-64995026D01*
X196654330Y-64995026D01*
X196593324Y-64964523D01*
X196562821Y-64934021D01*
X197538911Y-64354467D02*
X197233883Y-64354467D01*
X197203380Y-64659495D01*
X197233883Y-64628992D01*
X197294889Y-64598490D01*
X197447403Y-64598490D01*
X197508408Y-64628992D01*
X197538911Y-64659495D01*
X197569414Y-64720501D01*
X197569414Y-64873015D01*
X197538911Y-64934021D01*
X197508408Y-64964523D01*
X197447403Y-64995026D01*
X197294889Y-64995026D01*
X197233883Y-64964523D01*
X197203380Y-64934021D01*
X198209973Y-64995026D02*
X197996453Y-64689998D01*
X197843939Y-64995026D02*
X197843939Y-64354467D01*
X198087962Y-64354467D01*
X198148967Y-64384970D01*
X198179470Y-64415473D01*
X198209973Y-64476478D01*
X198209973Y-64567987D01*
X198179470Y-64628992D01*
X198148967Y-64659495D01*
X198087962Y-64689998D01*
X197843939Y-64689998D01*
X198453996Y-64812009D02*
X198759024Y-64812009D01*
X198392990Y-64995026D02*
X198606510Y-64354467D01*
X198820029Y-64995026D01*
X199033549Y-64995026D02*
X199033549Y-64354467D01*
X199277571Y-64354467D01*
X199338577Y-64384970D01*
X199369080Y-64415473D01*
X199399583Y-64476478D01*
X199399583Y-64567987D01*
X199369080Y-64628992D01*
X199338577Y-64659495D01*
X199277571Y-64689998D01*
X199033549Y-64689998D01*
X200040142Y-64934021D02*
X200009639Y-64964523D01*
X199918130Y-64995026D01*
X199857125Y-64995026D01*
X199765616Y-64964523D01*
X199704611Y-64903518D01*
X199674108Y-64842512D01*
X199643605Y-64720501D01*
X199643605Y-64628992D01*
X199674108Y-64506981D01*
X199704611Y-64445976D01*
X199765616Y-64384970D01*
X199857125Y-64354467D01*
X199918130Y-64354467D01*
X200009639Y-64384970D01*
X200040142Y-64415473D01*
X200589192Y-64567987D02*
X200589192Y-64995026D01*
X200436678Y-64323964D02*
X200284164Y-64781507D01*
X200680701Y-64781507D01*
X201138243Y-64659495D02*
X201229751Y-64689998D01*
X201260254Y-64720501D01*
X201290757Y-64781507D01*
X201290757Y-64873015D01*
X201260254Y-64934021D01*
X201229751Y-64964523D01*
X201168746Y-64995026D01*
X200924723Y-64995026D01*
X200924723Y-64354467D01*
X201138243Y-64354467D01*
X201199248Y-64384970D01*
X201229751Y-64415473D01*
X201260254Y-64476478D01*
X201260254Y-64537484D01*
X201229751Y-64598490D01*
X201199248Y-64628992D01*
X201138243Y-64659495D01*
X200924723Y-64659495D01*
X201565282Y-64995026D02*
X201565282Y-64354467D01*
X201565282Y-64659495D02*
X201931316Y-64659495D01*
X201931316Y-64995026D02*
X201931316Y-64354467D01*
X202175338Y-64354467D02*
X202571875Y-64354467D01*
X202358355Y-64598490D01*
X202449864Y-64598490D01*
X202510869Y-64628992D01*
X202541372Y-64659495D01*
X202571875Y-64720501D01*
X202571875Y-64873015D01*
X202541372Y-64934021D01*
X202510869Y-64964523D01*
X202449864Y-64995026D01*
X202266847Y-64995026D01*
X202205841Y-64964523D01*
X202175338Y-64934021D01*
G04 #@! TO.C,J2*
X98349515Y-64844847D02*
X98349515Y-65302207D01*
X98319024Y-65393679D01*
X98258043Y-65454660D01*
X98166571Y-65485151D01*
X98105590Y-65485151D01*
X98623931Y-64905828D02*
X98654422Y-64875338D01*
X98715403Y-64844847D01*
X98867856Y-64844847D01*
X98928838Y-64875338D01*
X98959328Y-64905828D01*
X98989819Y-64966810D01*
X98989819Y-65027791D01*
X98959328Y-65119263D01*
X98593440Y-65485151D01*
X98989819Y-65485151D01*
X95847621Y-78453967D02*
X96244158Y-78453967D01*
X96030638Y-78697990D01*
X96122147Y-78697990D01*
X96183152Y-78728492D01*
X96213655Y-78758995D01*
X96244158Y-78820001D01*
X96244158Y-78972515D01*
X96213655Y-79033521D01*
X96183152Y-79064023D01*
X96122147Y-79094526D01*
X95939130Y-79094526D01*
X95878124Y-79064023D01*
X95847621Y-79033521D01*
X96823711Y-78453967D02*
X96518683Y-78453967D01*
X96488180Y-78758995D01*
X96518683Y-78728492D01*
X96579689Y-78697990D01*
X96732203Y-78697990D01*
X96793208Y-78728492D01*
X96823711Y-78758995D01*
X96854214Y-78820001D01*
X96854214Y-78972515D01*
X96823711Y-79033521D01*
X96793208Y-79064023D01*
X96732203Y-79094526D01*
X96579689Y-79094526D01*
X96518683Y-79064023D01*
X96488180Y-79033521D01*
X97494773Y-79094526D02*
X97281253Y-78789498D01*
X97128739Y-79094526D02*
X97128739Y-78453967D01*
X97372762Y-78453967D01*
X97433767Y-78484470D01*
X97464270Y-78514973D01*
X97494773Y-78575978D01*
X97494773Y-78667487D01*
X97464270Y-78728492D01*
X97433767Y-78758995D01*
X97372762Y-78789498D01*
X97128739Y-78789498D01*
X97738796Y-78911509D02*
X98043824Y-78911509D01*
X97677790Y-79094526D02*
X97891310Y-78453967D01*
X98104829Y-79094526D01*
X98318349Y-79094526D02*
X98318349Y-78453967D01*
X98562371Y-78453967D01*
X98623377Y-78484470D01*
X98653880Y-78514973D01*
X98684383Y-78575978D01*
X98684383Y-78667487D01*
X98653880Y-78728492D01*
X98623377Y-78758995D01*
X98562371Y-78789498D01*
X98318349Y-78789498D01*
X99324942Y-79033521D02*
X99294439Y-79064023D01*
X99202930Y-79094526D01*
X99141925Y-79094526D01*
X99050416Y-79064023D01*
X98989411Y-79003018D01*
X98958908Y-78942012D01*
X98928405Y-78820001D01*
X98928405Y-78728492D01*
X98958908Y-78606481D01*
X98989411Y-78545476D01*
X99050416Y-78484470D01*
X99141925Y-78453967D01*
X99202930Y-78453967D01*
X99294439Y-78484470D01*
X99324942Y-78514973D01*
X99873992Y-78667487D02*
X99873992Y-79094526D01*
X99721478Y-78423464D02*
X99568964Y-78881007D01*
X99965501Y-78881007D01*
X100423043Y-78758995D02*
X100514551Y-78789498D01*
X100545054Y-78820001D01*
X100575557Y-78881007D01*
X100575557Y-78972515D01*
X100545054Y-79033521D01*
X100514551Y-79064023D01*
X100453546Y-79094526D01*
X100209523Y-79094526D01*
X100209523Y-78453967D01*
X100423043Y-78453967D01*
X100484048Y-78484470D01*
X100514551Y-78514973D01*
X100545054Y-78575978D01*
X100545054Y-78636984D01*
X100514551Y-78697990D01*
X100484048Y-78728492D01*
X100423043Y-78758995D01*
X100209523Y-78758995D01*
X100850082Y-79094526D02*
X100850082Y-78453967D01*
X100850082Y-78758995D02*
X101216116Y-78758995D01*
X101216116Y-79094526D02*
X101216116Y-78453967D01*
X101460138Y-78453967D02*
X101856675Y-78453967D01*
X101643155Y-78697990D01*
X101734664Y-78697990D01*
X101795669Y-78728492D01*
X101826172Y-78758995D01*
X101856675Y-78820001D01*
X101856675Y-78972515D01*
X101826172Y-79033521D01*
X101795669Y-79064023D01*
X101734664Y-79094526D01*
X101551647Y-79094526D01*
X101490641Y-79064023D01*
X101460138Y-79033521D01*
G04 #@! TD*
M02*
