M48
;DRILL file {KiCad (5.0.2)-1} date 20/02/2019 13:20:01
;FORMAT={-:-/ absolute / inch / decimal}
FMAT,2
INCH,TZ
T1C0.0295
T2C0.0300
T3C0.0472
%
G90
G05
T2
X5.575Y-4.1
X5.575Y-4.2
X5.575Y-4.3
X5.575Y-4.4
X5.575Y-4.5
X5.575Y-4.6
X5.575Y-4.7
X5.575Y-4.8
X6.275Y-4.1
X6.275Y-4.2
X6.275Y-4.3
X6.275Y-4.4
X6.275Y-4.5
X6.275Y-4.6
X6.275Y-4.7
X6.275Y-4.8
T3
X6.45Y-2.725
X6.45Y-2.9219
X6.9421Y-2.725
X6.9421Y-2.9219
X4.8079Y-2.7281
X4.8079Y-2.925
X5.3Y-2.7281
X5.3Y-2.925
T1
X7.4138Y-2.6803G85X7.4138Y-2.635
G05
X7.5171Y-3.0199G85X7.5624Y-3.0199
G05
X7.5722Y-2.9136G85X7.6175Y-2.9136
G05
X7.7356Y-2.638G85X7.6904Y-2.638
G05
X7.8469Y-2.7925G85X7.8469Y-2.8378
G05
X3.9031Y-2.8575G85X3.9031Y-2.8122
G05
X4.0144Y-3.012G85X4.0596Y-3.012
G05
X4.1778Y-2.7364G85X4.1325Y-2.7364
G05
X4.2329Y-2.6301G85X4.1876Y-2.6301
G05
X4.3362Y-2.9697G85X4.3362Y-3.015
G05
T0
M30
