G04 #@! TF.GenerationSoftware,KiCad,Pcbnew,(5.0.2)-1*
G04 #@! TF.CreationDate,2019-02-20T13:19:55+00:00*
G04 #@! TF.ProjectId,SplitAudio,53706c69-7441-4756-9469-6f2e6b696361,rev?*
G04 #@! TF.SameCoordinates,Original*
G04 #@! TF.FileFunction,Soldermask,Top*
G04 #@! TF.FilePolarity,Negative*
%FSLAX46Y46*%
G04 Gerber Fmt 4.6, Leading zero omitted, Abs format (unit mm)*
G04 Created by KiCad (PCBNEW (5.0.2)-1) date 20/02/2019 13:19:55*
%MOMM*%
%LPD*%
G01*
G04 APERTURE LIST*
%ADD10C,0.100000*%
G04 APERTURE END LIST*
D10*
G36*
X159622142Y-121138242D02*
X159770102Y-121199530D01*
X159903258Y-121288502D01*
X160016498Y-121401742D01*
X160105470Y-121534898D01*
X160166758Y-121682858D01*
X160198000Y-121839925D01*
X160198000Y-122000075D01*
X160166758Y-122157142D01*
X160105470Y-122305102D01*
X160016498Y-122438258D01*
X159903258Y-122551498D01*
X159770102Y-122640470D01*
X159622142Y-122701758D01*
X159465075Y-122733000D01*
X159304925Y-122733000D01*
X159147858Y-122701758D01*
X158999898Y-122640470D01*
X158866742Y-122551498D01*
X158753502Y-122438258D01*
X158664530Y-122305102D01*
X158603242Y-122157142D01*
X158572000Y-122000075D01*
X158572000Y-121839925D01*
X158603242Y-121682858D01*
X158664530Y-121534898D01*
X158753502Y-121401742D01*
X158866742Y-121288502D01*
X158999898Y-121199530D01*
X159147858Y-121138242D01*
X159304925Y-121107000D01*
X159465075Y-121107000D01*
X159622142Y-121138242D01*
X159622142Y-121138242D01*
G37*
G36*
X141842142Y-121138242D02*
X141990102Y-121199530D01*
X142123258Y-121288502D01*
X142236498Y-121401742D01*
X142325470Y-121534898D01*
X142386758Y-121682858D01*
X142418000Y-121839925D01*
X142418000Y-122000075D01*
X142386758Y-122157142D01*
X142325470Y-122305102D01*
X142236498Y-122438258D01*
X142123258Y-122551498D01*
X141990102Y-122640470D01*
X141842142Y-122701758D01*
X141685075Y-122733000D01*
X141524925Y-122733000D01*
X141367858Y-122701758D01*
X141219898Y-122640470D01*
X141086742Y-122551498D01*
X140973502Y-122438258D01*
X140884530Y-122305102D01*
X140823242Y-122157142D01*
X140792000Y-122000075D01*
X140792000Y-121839925D01*
X140823242Y-121682858D01*
X140884530Y-121534898D01*
X140973502Y-121401742D01*
X141086742Y-121288502D01*
X141219898Y-121199530D01*
X141367858Y-121138242D01*
X141524925Y-121107000D01*
X141685075Y-121107000D01*
X141842142Y-121138242D01*
X141842142Y-121138242D01*
G37*
G36*
X159622142Y-118598242D02*
X159770102Y-118659530D01*
X159903258Y-118748502D01*
X160016498Y-118861742D01*
X160105470Y-118994898D01*
X160166758Y-119142858D01*
X160198000Y-119299925D01*
X160198000Y-119460075D01*
X160166758Y-119617142D01*
X160105470Y-119765102D01*
X160016498Y-119898258D01*
X159903258Y-120011498D01*
X159770102Y-120100470D01*
X159622142Y-120161758D01*
X159465075Y-120193000D01*
X159304925Y-120193000D01*
X159147858Y-120161758D01*
X158999898Y-120100470D01*
X158866742Y-120011498D01*
X158753502Y-119898258D01*
X158664530Y-119765102D01*
X158603242Y-119617142D01*
X158572000Y-119460075D01*
X158572000Y-119299925D01*
X158603242Y-119142858D01*
X158664530Y-118994898D01*
X158753502Y-118861742D01*
X158866742Y-118748502D01*
X158999898Y-118659530D01*
X159147858Y-118598242D01*
X159304925Y-118567000D01*
X159465075Y-118567000D01*
X159622142Y-118598242D01*
X159622142Y-118598242D01*
G37*
G36*
X141842142Y-118598242D02*
X141990102Y-118659530D01*
X142123258Y-118748502D01*
X142236498Y-118861742D01*
X142325470Y-118994898D01*
X142386758Y-119142858D01*
X142418000Y-119299925D01*
X142418000Y-119460075D01*
X142386758Y-119617142D01*
X142325470Y-119765102D01*
X142236498Y-119898258D01*
X142123258Y-120011498D01*
X141990102Y-120100470D01*
X141842142Y-120161758D01*
X141685075Y-120193000D01*
X141524925Y-120193000D01*
X141367858Y-120161758D01*
X141219898Y-120100470D01*
X141086742Y-120011498D01*
X140973502Y-119898258D01*
X140884530Y-119765102D01*
X140823242Y-119617142D01*
X140792000Y-119460075D01*
X140792000Y-119299925D01*
X140823242Y-119142858D01*
X140884530Y-118994898D01*
X140973502Y-118861742D01*
X141086742Y-118748502D01*
X141219898Y-118659530D01*
X141367858Y-118598242D01*
X141524925Y-118567000D01*
X141685075Y-118567000D01*
X141842142Y-118598242D01*
X141842142Y-118598242D01*
G37*
G36*
X141842142Y-116058242D02*
X141990102Y-116119530D01*
X142123258Y-116208502D01*
X142236498Y-116321742D01*
X142325470Y-116454898D01*
X142386758Y-116602858D01*
X142418000Y-116759925D01*
X142418000Y-116920075D01*
X142386758Y-117077142D01*
X142325470Y-117225102D01*
X142236498Y-117358258D01*
X142123258Y-117471498D01*
X141990102Y-117560470D01*
X141842142Y-117621758D01*
X141685075Y-117653000D01*
X141524925Y-117653000D01*
X141367858Y-117621758D01*
X141219898Y-117560470D01*
X141086742Y-117471498D01*
X140973502Y-117358258D01*
X140884530Y-117225102D01*
X140823242Y-117077142D01*
X140792000Y-116920075D01*
X140792000Y-116759925D01*
X140823242Y-116602858D01*
X140884530Y-116454898D01*
X140973502Y-116321742D01*
X141086742Y-116208502D01*
X141219898Y-116119530D01*
X141367858Y-116058242D01*
X141524925Y-116027000D01*
X141685075Y-116027000D01*
X141842142Y-116058242D01*
X141842142Y-116058242D01*
G37*
G36*
X159622142Y-116058242D02*
X159770102Y-116119530D01*
X159903258Y-116208502D01*
X160016498Y-116321742D01*
X160105470Y-116454898D01*
X160166758Y-116602858D01*
X160198000Y-116759925D01*
X160198000Y-116920075D01*
X160166758Y-117077142D01*
X160105470Y-117225102D01*
X160016498Y-117358258D01*
X159903258Y-117471498D01*
X159770102Y-117560470D01*
X159622142Y-117621758D01*
X159465075Y-117653000D01*
X159304925Y-117653000D01*
X159147858Y-117621758D01*
X158999898Y-117560470D01*
X158866742Y-117471498D01*
X158753502Y-117358258D01*
X158664530Y-117225102D01*
X158603242Y-117077142D01*
X158572000Y-116920075D01*
X158572000Y-116759925D01*
X158603242Y-116602858D01*
X158664530Y-116454898D01*
X158753502Y-116321742D01*
X158866742Y-116208502D01*
X158999898Y-116119530D01*
X159147858Y-116058242D01*
X159304925Y-116027000D01*
X159465075Y-116027000D01*
X159622142Y-116058242D01*
X159622142Y-116058242D01*
G37*
G36*
X141842142Y-113518242D02*
X141990102Y-113579530D01*
X142123258Y-113668502D01*
X142236498Y-113781742D01*
X142325470Y-113914898D01*
X142386758Y-114062858D01*
X142418000Y-114219925D01*
X142418000Y-114380075D01*
X142386758Y-114537142D01*
X142325470Y-114685102D01*
X142236498Y-114818258D01*
X142123258Y-114931498D01*
X141990102Y-115020470D01*
X141842142Y-115081758D01*
X141685075Y-115113000D01*
X141524925Y-115113000D01*
X141367858Y-115081758D01*
X141219898Y-115020470D01*
X141086742Y-114931498D01*
X140973502Y-114818258D01*
X140884530Y-114685102D01*
X140823242Y-114537142D01*
X140792000Y-114380075D01*
X140792000Y-114219925D01*
X140823242Y-114062858D01*
X140884530Y-113914898D01*
X140973502Y-113781742D01*
X141086742Y-113668502D01*
X141219898Y-113579530D01*
X141367858Y-113518242D01*
X141524925Y-113487000D01*
X141685075Y-113487000D01*
X141842142Y-113518242D01*
X141842142Y-113518242D01*
G37*
G36*
X159622142Y-113518242D02*
X159770102Y-113579530D01*
X159903258Y-113668502D01*
X160016498Y-113781742D01*
X160105470Y-113914898D01*
X160166758Y-114062858D01*
X160198000Y-114219925D01*
X160198000Y-114380075D01*
X160166758Y-114537142D01*
X160105470Y-114685102D01*
X160016498Y-114818258D01*
X159903258Y-114931498D01*
X159770102Y-115020470D01*
X159622142Y-115081758D01*
X159465075Y-115113000D01*
X159304925Y-115113000D01*
X159147858Y-115081758D01*
X158999898Y-115020470D01*
X158866742Y-114931498D01*
X158753502Y-114818258D01*
X158664530Y-114685102D01*
X158603242Y-114537142D01*
X158572000Y-114380075D01*
X158572000Y-114219925D01*
X158603242Y-114062858D01*
X158664530Y-113914898D01*
X158753502Y-113781742D01*
X158866742Y-113668502D01*
X158999898Y-113579530D01*
X159147858Y-113518242D01*
X159304925Y-113487000D01*
X159465075Y-113487000D01*
X159622142Y-113518242D01*
X159622142Y-113518242D01*
G37*
G36*
X141842142Y-110978242D02*
X141990102Y-111039530D01*
X142123258Y-111128502D01*
X142236498Y-111241742D01*
X142325470Y-111374898D01*
X142386758Y-111522858D01*
X142418000Y-111679925D01*
X142418000Y-111840075D01*
X142386758Y-111997142D01*
X142325470Y-112145102D01*
X142236498Y-112278258D01*
X142123258Y-112391498D01*
X141990102Y-112480470D01*
X141842142Y-112541758D01*
X141685075Y-112573000D01*
X141524925Y-112573000D01*
X141367858Y-112541758D01*
X141219898Y-112480470D01*
X141086742Y-112391498D01*
X140973502Y-112278258D01*
X140884530Y-112145102D01*
X140823242Y-111997142D01*
X140792000Y-111840075D01*
X140792000Y-111679925D01*
X140823242Y-111522858D01*
X140884530Y-111374898D01*
X140973502Y-111241742D01*
X141086742Y-111128502D01*
X141219898Y-111039530D01*
X141367858Y-110978242D01*
X141524925Y-110947000D01*
X141685075Y-110947000D01*
X141842142Y-110978242D01*
X141842142Y-110978242D01*
G37*
G36*
X159622142Y-110978242D02*
X159770102Y-111039530D01*
X159903258Y-111128502D01*
X160016498Y-111241742D01*
X160105470Y-111374898D01*
X160166758Y-111522858D01*
X160198000Y-111679925D01*
X160198000Y-111840075D01*
X160166758Y-111997142D01*
X160105470Y-112145102D01*
X160016498Y-112278258D01*
X159903258Y-112391498D01*
X159770102Y-112480470D01*
X159622142Y-112541758D01*
X159465075Y-112573000D01*
X159304925Y-112573000D01*
X159147858Y-112541758D01*
X158999898Y-112480470D01*
X158866742Y-112391498D01*
X158753502Y-112278258D01*
X158664530Y-112145102D01*
X158603242Y-111997142D01*
X158572000Y-111840075D01*
X158572000Y-111679925D01*
X158603242Y-111522858D01*
X158664530Y-111374898D01*
X158753502Y-111241742D01*
X158866742Y-111128502D01*
X158999898Y-111039530D01*
X159147858Y-110978242D01*
X159304925Y-110947000D01*
X159465075Y-110947000D01*
X159622142Y-110978242D01*
X159622142Y-110978242D01*
G37*
G36*
X141842142Y-108438242D02*
X141990102Y-108499530D01*
X142123258Y-108588502D01*
X142236498Y-108701742D01*
X142325470Y-108834898D01*
X142386758Y-108982858D01*
X142418000Y-109139925D01*
X142418000Y-109300075D01*
X142386758Y-109457142D01*
X142325470Y-109605102D01*
X142236498Y-109738258D01*
X142123258Y-109851498D01*
X141990102Y-109940470D01*
X141842142Y-110001758D01*
X141685075Y-110033000D01*
X141524925Y-110033000D01*
X141367858Y-110001758D01*
X141219898Y-109940470D01*
X141086742Y-109851498D01*
X140973502Y-109738258D01*
X140884530Y-109605102D01*
X140823242Y-109457142D01*
X140792000Y-109300075D01*
X140792000Y-109139925D01*
X140823242Y-108982858D01*
X140884530Y-108834898D01*
X140973502Y-108701742D01*
X141086742Y-108588502D01*
X141219898Y-108499530D01*
X141367858Y-108438242D01*
X141524925Y-108407000D01*
X141685075Y-108407000D01*
X141842142Y-108438242D01*
X141842142Y-108438242D01*
G37*
G36*
X159622142Y-108438242D02*
X159770102Y-108499530D01*
X159903258Y-108588502D01*
X160016498Y-108701742D01*
X160105470Y-108834898D01*
X160166758Y-108982858D01*
X160198000Y-109139925D01*
X160198000Y-109300075D01*
X160166758Y-109457142D01*
X160105470Y-109605102D01*
X160016498Y-109738258D01*
X159903258Y-109851498D01*
X159770102Y-109940470D01*
X159622142Y-110001758D01*
X159465075Y-110033000D01*
X159304925Y-110033000D01*
X159147858Y-110001758D01*
X158999898Y-109940470D01*
X158866742Y-109851498D01*
X158753502Y-109738258D01*
X158664530Y-109605102D01*
X158603242Y-109457142D01*
X158572000Y-109300075D01*
X158572000Y-109139925D01*
X158603242Y-108982858D01*
X158664530Y-108834898D01*
X158753502Y-108701742D01*
X158866742Y-108588502D01*
X158999898Y-108499530D01*
X159147858Y-108438242D01*
X159304925Y-108407000D01*
X159465075Y-108407000D01*
X159622142Y-108438242D01*
X159622142Y-108438242D01*
G37*
G36*
X141842142Y-105898242D02*
X141990102Y-105959530D01*
X142123258Y-106048502D01*
X142236498Y-106161742D01*
X142325470Y-106294898D01*
X142386758Y-106442858D01*
X142418000Y-106599925D01*
X142418000Y-106760075D01*
X142386758Y-106917142D01*
X142325470Y-107065102D01*
X142236498Y-107198258D01*
X142123258Y-107311498D01*
X141990102Y-107400470D01*
X141842142Y-107461758D01*
X141685075Y-107493000D01*
X141524925Y-107493000D01*
X141367858Y-107461758D01*
X141219898Y-107400470D01*
X141086742Y-107311498D01*
X140973502Y-107198258D01*
X140884530Y-107065102D01*
X140823242Y-106917142D01*
X140792000Y-106760075D01*
X140792000Y-106599925D01*
X140823242Y-106442858D01*
X140884530Y-106294898D01*
X140973502Y-106161742D01*
X141086742Y-106048502D01*
X141219898Y-105959530D01*
X141367858Y-105898242D01*
X141524925Y-105867000D01*
X141685075Y-105867000D01*
X141842142Y-105898242D01*
X141842142Y-105898242D01*
G37*
G36*
X159622142Y-105898242D02*
X159770102Y-105959530D01*
X159903258Y-106048502D01*
X160016498Y-106161742D01*
X160105470Y-106294898D01*
X160166758Y-106442858D01*
X160198000Y-106599925D01*
X160198000Y-106760075D01*
X160166758Y-106917142D01*
X160105470Y-107065102D01*
X160016498Y-107198258D01*
X159903258Y-107311498D01*
X159770102Y-107400470D01*
X159622142Y-107461758D01*
X159465075Y-107493000D01*
X159304925Y-107493000D01*
X159147858Y-107461758D01*
X158999898Y-107400470D01*
X158866742Y-107311498D01*
X158753502Y-107198258D01*
X158664530Y-107065102D01*
X158603242Y-106917142D01*
X158572000Y-106760075D01*
X158572000Y-106599925D01*
X158603242Y-106442858D01*
X158664530Y-106294898D01*
X158753502Y-106161742D01*
X158866742Y-106048502D01*
X158999898Y-105959530D01*
X159147858Y-105898242D01*
X159304925Y-105867000D01*
X159465075Y-105867000D01*
X159622142Y-105898242D01*
X159622142Y-105898242D01*
G37*
G36*
X141842142Y-103358242D02*
X141990102Y-103419530D01*
X142123258Y-103508502D01*
X142236498Y-103621742D01*
X142325470Y-103754898D01*
X142386758Y-103902858D01*
X142418000Y-104059925D01*
X142418000Y-104220075D01*
X142386758Y-104377142D01*
X142325470Y-104525102D01*
X142236498Y-104658258D01*
X142123258Y-104771498D01*
X141990102Y-104860470D01*
X141842142Y-104921758D01*
X141685075Y-104953000D01*
X141524925Y-104953000D01*
X141367858Y-104921758D01*
X141219898Y-104860470D01*
X141086742Y-104771498D01*
X140973502Y-104658258D01*
X140884530Y-104525102D01*
X140823242Y-104377142D01*
X140792000Y-104220075D01*
X140792000Y-104059925D01*
X140823242Y-103902858D01*
X140884530Y-103754898D01*
X140973502Y-103621742D01*
X141086742Y-103508502D01*
X141219898Y-103419530D01*
X141367858Y-103358242D01*
X141524925Y-103327000D01*
X141685075Y-103327000D01*
X141842142Y-103358242D01*
X141842142Y-103358242D01*
G37*
G36*
X159622142Y-103358242D02*
X159770102Y-103419530D01*
X159903258Y-103508502D01*
X160016498Y-103621742D01*
X160105470Y-103754898D01*
X160166758Y-103902858D01*
X160198000Y-104059925D01*
X160198000Y-104220075D01*
X160166758Y-104377142D01*
X160105470Y-104525102D01*
X160016498Y-104658258D01*
X159903258Y-104771498D01*
X159770102Y-104860470D01*
X159622142Y-104921758D01*
X159465075Y-104953000D01*
X159304925Y-104953000D01*
X159147858Y-104921758D01*
X158999898Y-104860470D01*
X158866742Y-104771498D01*
X158753502Y-104658258D01*
X158664530Y-104525102D01*
X158603242Y-104377142D01*
X158572000Y-104220075D01*
X158572000Y-104059925D01*
X158603242Y-103902858D01*
X158664530Y-103754898D01*
X158753502Y-103621742D01*
X158866742Y-103508502D01*
X158999898Y-103419530D01*
X159147858Y-103358242D01*
X159304925Y-103327000D01*
X159465075Y-103327000D01*
X159622142Y-103358242D01*
X159622142Y-103358242D01*
G37*
G36*
X192239003Y-76031559D02*
X192272303Y-76034839D01*
X192336394Y-76054281D01*
X192400485Y-76073722D01*
X192518617Y-76136865D01*
X192622159Y-76221841D01*
X192707135Y-76325383D01*
X192770278Y-76443515D01*
X192809161Y-76571698D01*
X192822290Y-76705000D01*
X192809161Y-76838302D01*
X192770278Y-76966485D01*
X192707135Y-77084617D01*
X192622159Y-77188159D01*
X192518617Y-77273135D01*
X192400485Y-77336278D01*
X192336394Y-77355719D01*
X192272303Y-77375161D01*
X192239003Y-77378441D01*
X192172406Y-77385000D01*
X190847594Y-77385000D01*
X190780997Y-77378441D01*
X190747697Y-77375161D01*
X190683606Y-77355719D01*
X190619515Y-77336278D01*
X190501383Y-77273135D01*
X190397841Y-77188159D01*
X190312865Y-77084617D01*
X190249722Y-76966485D01*
X190210839Y-76838302D01*
X190197710Y-76705000D01*
X190210839Y-76571698D01*
X190249722Y-76443515D01*
X190312865Y-76325383D01*
X190397841Y-76221841D01*
X190501383Y-76136865D01*
X190619515Y-76073722D01*
X190683606Y-76054281D01*
X190747697Y-76034839D01*
X190780997Y-76031559D01*
X190847594Y-76025000D01*
X192172406Y-76025000D01*
X192239003Y-76031559D01*
X192239003Y-76031559D01*
G37*
G36*
X110273303Y-74705839D02*
X110337393Y-74725280D01*
X110401485Y-74744722D01*
X110519617Y-74807865D01*
X110623159Y-74892841D01*
X110708135Y-74996383D01*
X110771278Y-75114515D01*
X110771278Y-75114516D01*
X110810161Y-75242697D01*
X110820000Y-75342596D01*
X110820000Y-76667404D01*
X110810242Y-76766485D01*
X110810161Y-76767302D01*
X110771278Y-76895485D01*
X110708135Y-77013617D01*
X110623159Y-77117159D01*
X110599862Y-77136278D01*
X110519615Y-77202135D01*
X110464627Y-77231527D01*
X110401484Y-77265278D01*
X110375582Y-77273135D01*
X110273302Y-77304161D01*
X110140000Y-77317290D01*
X110006697Y-77304161D01*
X109904417Y-77273135D01*
X109878515Y-77265278D01*
X109760383Y-77202135D01*
X109656841Y-77117159D01*
X109571866Y-77013616D01*
X109558259Y-76988159D01*
X109508723Y-76895485D01*
X109508722Y-76895484D01*
X109489281Y-76831393D01*
X109469839Y-76767302D01*
X109460000Y-76667403D01*
X109460001Y-75342596D01*
X109469840Y-75242697D01*
X109508723Y-75114516D01*
X109508723Y-75114515D01*
X109571866Y-74996383D01*
X109656842Y-74892841D01*
X109760384Y-74807865D01*
X109878516Y-74744722D01*
X109942607Y-74725281D01*
X110006698Y-74705839D01*
X110140000Y-74692710D01*
X110273303Y-74705839D01*
X110273303Y-74705839D01*
G37*
G36*
X103269003Y-75831559D02*
X103302303Y-75834839D01*
X103366394Y-75854281D01*
X103430485Y-75873722D01*
X103548617Y-75936865D01*
X103652159Y-76021841D01*
X103737135Y-76125383D01*
X103800278Y-76243515D01*
X103839161Y-76371698D01*
X103852290Y-76505000D01*
X103839161Y-76638302D01*
X103800278Y-76766485D01*
X103737135Y-76884617D01*
X103652159Y-76988159D01*
X103548617Y-77073135D01*
X103430485Y-77136278D01*
X103366394Y-77155719D01*
X103302303Y-77175161D01*
X103269003Y-77178441D01*
X103202406Y-77185000D01*
X101877594Y-77185000D01*
X101810997Y-77178441D01*
X101777697Y-77175161D01*
X101713606Y-77155719D01*
X101649515Y-77136278D01*
X101531383Y-77073135D01*
X101427841Y-76988159D01*
X101342865Y-76884617D01*
X101279722Y-76766485D01*
X101240839Y-76638302D01*
X101227710Y-76505000D01*
X101240839Y-76371698D01*
X101279722Y-76243515D01*
X101342865Y-76125383D01*
X101427841Y-76021841D01*
X101531383Y-75936865D01*
X101649515Y-75873722D01*
X101713607Y-75854280D01*
X101777697Y-75834839D01*
X101810997Y-75831559D01*
X101877594Y-75825000D01*
X103202406Y-75825000D01*
X103269003Y-75831559D01*
X103269003Y-75831559D01*
G37*
G36*
X122481689Y-72998706D02*
X122625040Y-73012825D01*
X122870280Y-73087218D01*
X122870282Y-73087219D01*
X123096296Y-73208026D01*
X123294397Y-73370603D01*
X123456974Y-73568704D01*
X123487270Y-73625384D01*
X123577782Y-73794720D01*
X123652175Y-74039960D01*
X123677294Y-74295000D01*
X123652175Y-74550040D01*
X123577782Y-74795280D01*
X123577781Y-74795282D01*
X123456974Y-75021296D01*
X123294397Y-75219397D01*
X123096296Y-75381974D01*
X122880770Y-75497175D01*
X122870280Y-75502782D01*
X122625040Y-75577175D01*
X122481689Y-75591294D01*
X122433906Y-75596000D01*
X121806094Y-75596000D01*
X121758311Y-75591294D01*
X121614960Y-75577175D01*
X121369720Y-75502782D01*
X121359230Y-75497175D01*
X121143704Y-75381974D01*
X120945603Y-75219397D01*
X120783026Y-75021296D01*
X120662219Y-74795282D01*
X120662218Y-74795280D01*
X120587825Y-74550040D01*
X120562706Y-74295000D01*
X120587825Y-74039960D01*
X120662218Y-73794720D01*
X120752730Y-73625384D01*
X120783026Y-73568704D01*
X120945603Y-73370603D01*
X121143704Y-73208026D01*
X121369718Y-73087219D01*
X121369720Y-73087218D01*
X121614960Y-73012825D01*
X121758311Y-72998706D01*
X121806094Y-72994000D01*
X122433906Y-72994000D01*
X122481689Y-72998706D01*
X122481689Y-72998706D01*
G37*
G36*
X134981689Y-72998706D02*
X135125040Y-73012825D01*
X135370280Y-73087218D01*
X135370282Y-73087219D01*
X135596296Y-73208026D01*
X135794397Y-73370603D01*
X135956974Y-73568704D01*
X135987270Y-73625384D01*
X136077782Y-73794720D01*
X136152175Y-74039960D01*
X136177294Y-74295000D01*
X136152175Y-74550040D01*
X136077782Y-74795280D01*
X136077781Y-74795282D01*
X135956974Y-75021296D01*
X135794397Y-75219397D01*
X135596296Y-75381974D01*
X135380770Y-75497175D01*
X135370280Y-75502782D01*
X135125040Y-75577175D01*
X134981689Y-75591294D01*
X134933906Y-75596000D01*
X134306094Y-75596000D01*
X134258311Y-75591294D01*
X134114960Y-75577175D01*
X133869720Y-75502782D01*
X133859230Y-75497175D01*
X133643704Y-75381974D01*
X133445603Y-75219397D01*
X133283026Y-75021296D01*
X133162219Y-74795282D01*
X133162218Y-74795280D01*
X133087825Y-74550040D01*
X133062706Y-74295000D01*
X133087825Y-74039960D01*
X133162218Y-73794720D01*
X133252730Y-73625384D01*
X133283026Y-73568704D01*
X133445603Y-73370603D01*
X133643704Y-73208026D01*
X133869718Y-73087219D01*
X133869720Y-73087218D01*
X134114960Y-73012825D01*
X134258311Y-72998706D01*
X134306094Y-72994000D01*
X134933906Y-72994000D01*
X134981689Y-72998706D01*
X134981689Y-72998706D01*
G37*
G36*
X164191689Y-72918706D02*
X164335040Y-72932825D01*
X164580280Y-73007218D01*
X164580282Y-73007219D01*
X164806296Y-73128026D01*
X165004397Y-73290603D01*
X165166974Y-73488704D01*
X165166975Y-73488706D01*
X165287782Y-73714720D01*
X165362175Y-73959960D01*
X165387294Y-74215000D01*
X165362175Y-74470040D01*
X165287782Y-74715280D01*
X165287781Y-74715282D01*
X165166974Y-74941296D01*
X165004397Y-75139397D01*
X164806296Y-75301974D01*
X164656625Y-75381975D01*
X164580280Y-75422782D01*
X164335040Y-75497175D01*
X164191689Y-75511294D01*
X164143906Y-75516000D01*
X163516094Y-75516000D01*
X163468311Y-75511294D01*
X163324960Y-75497175D01*
X163079720Y-75422782D01*
X163003375Y-75381975D01*
X162853704Y-75301974D01*
X162655603Y-75139397D01*
X162493026Y-74941296D01*
X162372219Y-74715282D01*
X162372218Y-74715280D01*
X162297825Y-74470040D01*
X162272706Y-74215000D01*
X162297825Y-73959960D01*
X162372218Y-73714720D01*
X162493025Y-73488706D01*
X162493026Y-73488704D01*
X162655603Y-73290603D01*
X162853704Y-73128026D01*
X163079718Y-73007219D01*
X163079720Y-73007218D01*
X163324960Y-72932825D01*
X163468311Y-72918706D01*
X163516094Y-72914000D01*
X164143906Y-72914000D01*
X164191689Y-72918706D01*
X164191689Y-72918706D01*
G37*
G36*
X176691689Y-72918706D02*
X176835040Y-72932825D01*
X177080280Y-73007218D01*
X177080282Y-73007219D01*
X177306296Y-73128026D01*
X177504397Y-73290603D01*
X177666974Y-73488704D01*
X177666975Y-73488706D01*
X177787782Y-73714720D01*
X177862175Y-73959960D01*
X177887294Y-74215000D01*
X177862175Y-74470040D01*
X177787782Y-74715280D01*
X177787781Y-74715282D01*
X177666974Y-74941296D01*
X177504397Y-75139397D01*
X177306296Y-75301974D01*
X177156625Y-75381975D01*
X177080280Y-75422782D01*
X176835040Y-75497175D01*
X176691689Y-75511294D01*
X176643906Y-75516000D01*
X176016094Y-75516000D01*
X175968311Y-75511294D01*
X175824960Y-75497175D01*
X175579720Y-75422782D01*
X175503375Y-75381975D01*
X175353704Y-75301974D01*
X175155603Y-75139397D01*
X174993026Y-74941296D01*
X174872219Y-74715282D01*
X174872218Y-74715280D01*
X174797825Y-74470040D01*
X174772706Y-74215000D01*
X174797825Y-73959960D01*
X174872218Y-73714720D01*
X174993025Y-73488706D01*
X174993026Y-73488704D01*
X175155603Y-73290603D01*
X175353704Y-73128026D01*
X175579718Y-73007219D01*
X175579720Y-73007218D01*
X175824960Y-72932825D01*
X175968311Y-72918706D01*
X176016094Y-72914000D01*
X176643906Y-72914000D01*
X176691689Y-72918706D01*
X176691689Y-72918706D01*
G37*
G36*
X193639003Y-73331559D02*
X193672303Y-73334839D01*
X193736393Y-73354280D01*
X193800485Y-73373722D01*
X193918617Y-73436865D01*
X194022159Y-73521841D01*
X194107135Y-73625383D01*
X194170278Y-73743515D01*
X194209161Y-73871698D01*
X194222290Y-74005000D01*
X194209161Y-74138302D01*
X194170278Y-74266485D01*
X194107135Y-74384617D01*
X194022159Y-74488159D01*
X193918617Y-74573135D01*
X193800485Y-74636278D01*
X193736393Y-74655720D01*
X193672303Y-74675161D01*
X193639003Y-74678441D01*
X193572406Y-74685000D01*
X192247594Y-74685000D01*
X192180997Y-74678441D01*
X192147697Y-74675161D01*
X192083606Y-74655719D01*
X192019515Y-74636278D01*
X191901383Y-74573135D01*
X191797841Y-74488159D01*
X191712865Y-74384617D01*
X191649722Y-74266485D01*
X191610839Y-74138302D01*
X191597710Y-74005000D01*
X191610839Y-73871698D01*
X191649722Y-73743515D01*
X191712865Y-73625383D01*
X191797841Y-73521841D01*
X191901383Y-73436865D01*
X192019515Y-73373722D01*
X192083607Y-73354280D01*
X192147697Y-73334839D01*
X192180997Y-73331559D01*
X192247594Y-73325000D01*
X193572406Y-73325000D01*
X193639003Y-73331559D01*
X193639003Y-73331559D01*
G37*
G36*
X99273302Y-70705839D02*
X99337392Y-70725280D01*
X99401484Y-70744722D01*
X99464627Y-70778473D01*
X99519615Y-70807865D01*
X99519617Y-70807866D01*
X99519616Y-70807866D01*
X99623159Y-70892841D01*
X99708135Y-70996383D01*
X99771278Y-71114515D01*
X99810161Y-71242698D01*
X99820000Y-71342594D01*
X99820000Y-72667406D01*
X99810161Y-72767302D01*
X99771278Y-72895485D01*
X99708135Y-73013617D01*
X99623159Y-73117159D01*
X99519617Y-73202135D01*
X99401485Y-73265278D01*
X99337394Y-73284719D01*
X99273303Y-73304161D01*
X99140000Y-73317290D01*
X99006698Y-73304161D01*
X98942607Y-73284719D01*
X98878516Y-73265278D01*
X98760384Y-73202135D01*
X98656842Y-73117159D01*
X98571866Y-73013617D01*
X98508723Y-72895485D01*
X98469840Y-72767302D01*
X98460001Y-72667406D01*
X98460000Y-71342595D01*
X98469839Y-71242699D01*
X98469840Y-71242697D01*
X98508722Y-71114517D01*
X98508722Y-71114516D01*
X98571866Y-70996384D01*
X98656841Y-70892841D01*
X98760383Y-70807865D01*
X98878515Y-70744722D01*
X98942606Y-70725281D01*
X99006697Y-70705839D01*
X99140000Y-70692710D01*
X99273302Y-70705839D01*
X99273302Y-70705839D01*
G37*
G36*
X199443303Y-70205839D02*
X199487998Y-70219397D01*
X199571485Y-70244722D01*
X199689617Y-70307865D01*
X199793159Y-70392841D01*
X199878135Y-70496383D01*
X199941278Y-70614515D01*
X199980161Y-70742698D01*
X199990000Y-70842594D01*
X199990000Y-72167406D01*
X199980161Y-72267302D01*
X199941278Y-72395485D01*
X199878135Y-72513617D01*
X199793159Y-72617159D01*
X199731935Y-72667404D01*
X199689615Y-72702135D01*
X199634627Y-72731527D01*
X199571484Y-72765278D01*
X199507392Y-72784720D01*
X199443302Y-72804161D01*
X199310000Y-72817290D01*
X199176697Y-72804161D01*
X199112606Y-72784719D01*
X199048515Y-72765278D01*
X198930383Y-72702135D01*
X198826841Y-72617159D01*
X198741866Y-72513616D01*
X198678722Y-72395484D01*
X198659280Y-72331392D01*
X198639839Y-72267302D01*
X198630000Y-72167403D01*
X198630001Y-70842596D01*
X198633422Y-70807866D01*
X198639840Y-70742698D01*
X198678723Y-70614515D01*
X198741866Y-70496383D01*
X198826842Y-70392841D01*
X198930384Y-70307865D01*
X199048516Y-70244722D01*
X199132003Y-70219397D01*
X199176698Y-70205839D01*
X199310000Y-70192710D01*
X199443303Y-70205839D01*
X199443303Y-70205839D01*
G37*
G36*
X122481689Y-67998706D02*
X122625040Y-68012825D01*
X122870280Y-68087218D01*
X122870282Y-68087219D01*
X123096296Y-68208026D01*
X123294397Y-68370603D01*
X123456974Y-68568704D01*
X123456975Y-68568706D01*
X123577782Y-68794720D01*
X123652175Y-69039960D01*
X123677294Y-69295000D01*
X123652175Y-69550040D01*
X123577782Y-69795280D01*
X123577781Y-69795282D01*
X123456974Y-70021296D01*
X123294397Y-70219397D01*
X123096296Y-70381974D01*
X122882252Y-70496383D01*
X122870280Y-70502782D01*
X122625040Y-70577175D01*
X122481689Y-70591294D01*
X122433906Y-70596000D01*
X121806094Y-70596000D01*
X121758311Y-70591294D01*
X121614960Y-70577175D01*
X121369720Y-70502782D01*
X121357748Y-70496383D01*
X121143704Y-70381974D01*
X120945603Y-70219397D01*
X120783026Y-70021296D01*
X120662219Y-69795282D01*
X120662218Y-69795280D01*
X120587825Y-69550040D01*
X120562706Y-69295000D01*
X120587825Y-69039960D01*
X120662218Y-68794720D01*
X120783025Y-68568706D01*
X120783026Y-68568704D01*
X120945603Y-68370603D01*
X121143704Y-68208026D01*
X121369718Y-68087219D01*
X121369720Y-68087218D01*
X121614960Y-68012825D01*
X121758311Y-67998706D01*
X121806094Y-67994000D01*
X122433906Y-67994000D01*
X122481689Y-67998706D01*
X122481689Y-67998706D01*
G37*
G36*
X134981689Y-67998706D02*
X135125040Y-68012825D01*
X135370280Y-68087218D01*
X135370282Y-68087219D01*
X135596296Y-68208026D01*
X135794397Y-68370603D01*
X135956974Y-68568704D01*
X135956975Y-68568706D01*
X136077782Y-68794720D01*
X136152175Y-69039960D01*
X136177294Y-69295000D01*
X136152175Y-69550040D01*
X136077782Y-69795280D01*
X136077781Y-69795282D01*
X135956974Y-70021296D01*
X135794397Y-70219397D01*
X135596296Y-70381974D01*
X135382252Y-70496383D01*
X135370280Y-70502782D01*
X135125040Y-70577175D01*
X134981689Y-70591294D01*
X134933906Y-70596000D01*
X134306094Y-70596000D01*
X134258311Y-70591294D01*
X134114960Y-70577175D01*
X133869720Y-70502782D01*
X133857748Y-70496383D01*
X133643704Y-70381974D01*
X133445603Y-70219397D01*
X133283026Y-70021296D01*
X133162219Y-69795282D01*
X133162218Y-69795280D01*
X133087825Y-69550040D01*
X133062706Y-69295000D01*
X133087825Y-69039960D01*
X133162218Y-68794720D01*
X133283025Y-68568706D01*
X133283026Y-68568704D01*
X133445603Y-68370603D01*
X133643704Y-68208026D01*
X133869718Y-68087219D01*
X133869720Y-68087218D01*
X134114960Y-68012825D01*
X134258311Y-67998706D01*
X134306094Y-67994000D01*
X134933906Y-67994000D01*
X134981689Y-67998706D01*
X134981689Y-67998706D01*
G37*
G36*
X164191689Y-67918706D02*
X164335040Y-67932825D01*
X164580280Y-68007218D01*
X164580282Y-68007219D01*
X164806296Y-68128026D01*
X165004397Y-68290603D01*
X165166974Y-68488704D01*
X165166975Y-68488706D01*
X165287782Y-68714720D01*
X165362175Y-68959960D01*
X165387294Y-69215000D01*
X165362175Y-69470040D01*
X165287782Y-69715280D01*
X165287781Y-69715282D01*
X165166974Y-69941296D01*
X165004397Y-70139397D01*
X164806296Y-70301974D01*
X164656625Y-70381975D01*
X164580280Y-70422782D01*
X164335040Y-70497175D01*
X164191689Y-70511294D01*
X164143906Y-70516000D01*
X163516094Y-70516000D01*
X163468311Y-70511294D01*
X163324960Y-70497175D01*
X163079720Y-70422782D01*
X163003375Y-70381975D01*
X162853704Y-70301974D01*
X162655603Y-70139397D01*
X162493026Y-69941296D01*
X162372219Y-69715282D01*
X162372218Y-69715280D01*
X162297825Y-69470040D01*
X162272706Y-69215000D01*
X162297825Y-68959960D01*
X162372218Y-68714720D01*
X162493025Y-68488706D01*
X162493026Y-68488704D01*
X162655603Y-68290603D01*
X162853704Y-68128026D01*
X163079718Y-68007219D01*
X163079720Y-68007218D01*
X163324960Y-67932825D01*
X163468311Y-67918706D01*
X163516094Y-67914000D01*
X164143906Y-67914000D01*
X164191689Y-67918706D01*
X164191689Y-67918706D01*
G37*
G36*
X176691689Y-67918706D02*
X176835040Y-67932825D01*
X177080280Y-68007218D01*
X177080282Y-68007219D01*
X177306296Y-68128026D01*
X177504397Y-68290603D01*
X177666974Y-68488704D01*
X177666975Y-68488706D01*
X177787782Y-68714720D01*
X177862175Y-68959960D01*
X177887294Y-69215000D01*
X177862175Y-69470040D01*
X177787782Y-69715280D01*
X177787781Y-69715282D01*
X177666974Y-69941296D01*
X177504397Y-70139397D01*
X177306296Y-70301974D01*
X177156625Y-70381975D01*
X177080280Y-70422782D01*
X176835040Y-70497175D01*
X176691689Y-70511294D01*
X176643906Y-70516000D01*
X176016094Y-70516000D01*
X175968311Y-70511294D01*
X175824960Y-70497175D01*
X175579720Y-70422782D01*
X175503375Y-70381975D01*
X175353704Y-70301974D01*
X175155603Y-70139397D01*
X174993026Y-69941296D01*
X174872219Y-69715282D01*
X174872218Y-69715280D01*
X174797825Y-69470040D01*
X174772706Y-69215000D01*
X174797825Y-68959960D01*
X174872218Y-68714720D01*
X174993025Y-68488706D01*
X174993026Y-68488704D01*
X175155603Y-68290603D01*
X175353704Y-68128026D01*
X175579718Y-68007219D01*
X175579720Y-68007218D01*
X175824960Y-67932825D01*
X175968311Y-67918706D01*
X176016094Y-67914000D01*
X176643906Y-67914000D01*
X176691689Y-67918706D01*
X176691689Y-67918706D01*
G37*
G36*
X106269003Y-68831559D02*
X106302303Y-68834839D01*
X106366394Y-68854281D01*
X106430485Y-68873722D01*
X106548617Y-68936865D01*
X106652159Y-69021841D01*
X106737135Y-69125383D01*
X106800278Y-69243515D01*
X106839161Y-69371698D01*
X106852290Y-69505000D01*
X106839161Y-69638302D01*
X106800278Y-69766485D01*
X106737135Y-69884617D01*
X106652159Y-69988159D01*
X106548617Y-70073135D01*
X106430485Y-70136278D01*
X106366394Y-70155719D01*
X106302303Y-70175161D01*
X106269003Y-70178441D01*
X106202406Y-70185000D01*
X104877594Y-70185000D01*
X104810997Y-70178441D01*
X104777697Y-70175161D01*
X104713606Y-70155719D01*
X104649515Y-70136278D01*
X104531383Y-70073135D01*
X104427841Y-69988159D01*
X104342865Y-69884617D01*
X104279722Y-69766485D01*
X104240839Y-69638302D01*
X104227710Y-69505000D01*
X104240839Y-69371698D01*
X104279722Y-69243515D01*
X104342865Y-69125383D01*
X104427841Y-69021841D01*
X104531383Y-68936865D01*
X104649515Y-68873722D01*
X104713606Y-68854281D01*
X104777697Y-68834839D01*
X104810997Y-68831559D01*
X104877594Y-68825000D01*
X106202406Y-68825000D01*
X106269003Y-68831559D01*
X106269003Y-68831559D01*
G37*
G36*
X188443302Y-66205839D02*
X188507393Y-66225281D01*
X188571484Y-66244722D01*
X188634627Y-66278473D01*
X188689615Y-66307865D01*
X188689617Y-66307866D01*
X188689616Y-66307866D01*
X188793159Y-66392841D01*
X188878135Y-66496383D01*
X188941278Y-66614515D01*
X188944575Y-66625384D01*
X188980161Y-66742697D01*
X188980242Y-66743516D01*
X188990000Y-66842594D01*
X188990000Y-68167406D01*
X188980161Y-68267302D01*
X188941278Y-68395485D01*
X188878135Y-68513617D01*
X188793159Y-68617159D01*
X188689617Y-68702135D01*
X188571485Y-68765278D01*
X188507393Y-68784720D01*
X188443303Y-68804161D01*
X188310000Y-68817290D01*
X188176698Y-68804161D01*
X188112608Y-68784720D01*
X188048516Y-68765278D01*
X187930384Y-68702135D01*
X187826842Y-68617159D01*
X187741866Y-68513617D01*
X187678723Y-68395485D01*
X187639840Y-68267302D01*
X187630001Y-68167406D01*
X187630000Y-66842595D01*
X187636559Y-66775998D01*
X187639839Y-66742698D01*
X187661377Y-66671697D01*
X187678722Y-66614516D01*
X187716673Y-66543516D01*
X187741865Y-66496385D01*
X187800135Y-66425383D01*
X187826841Y-66392841D01*
X187930383Y-66307865D01*
X188048515Y-66244722D01*
X188112607Y-66225280D01*
X188176697Y-66205839D01*
X188310000Y-66192710D01*
X188443302Y-66205839D01*
X188443302Y-66205839D01*
G37*
G36*
X196639003Y-66331559D02*
X196672303Y-66334839D01*
X196736393Y-66354280D01*
X196800485Y-66373722D01*
X196918617Y-66436865D01*
X197022159Y-66521841D01*
X197107135Y-66625383D01*
X197170278Y-66743515D01*
X197209161Y-66871698D01*
X197222290Y-67005000D01*
X197209161Y-67138302D01*
X197170278Y-67266485D01*
X197107135Y-67384617D01*
X197022159Y-67488159D01*
X196918617Y-67573135D01*
X196800485Y-67636278D01*
X196736394Y-67655719D01*
X196672303Y-67675161D01*
X196639003Y-67678441D01*
X196572406Y-67685000D01*
X195247594Y-67685000D01*
X195180997Y-67678441D01*
X195147697Y-67675161D01*
X195083606Y-67655719D01*
X195019515Y-67636278D01*
X194901383Y-67573135D01*
X194797841Y-67488159D01*
X194712865Y-67384617D01*
X194649722Y-67266485D01*
X194610839Y-67138302D01*
X194597710Y-67005000D01*
X194610839Y-66871698D01*
X194649722Y-66743515D01*
X194712865Y-66625383D01*
X194797841Y-66521841D01*
X194901383Y-66436865D01*
X195019515Y-66373722D01*
X195083607Y-66354280D01*
X195147697Y-66334839D01*
X195180997Y-66331559D01*
X195247594Y-66325000D01*
X196572406Y-66325000D01*
X196639003Y-66331559D01*
X196639003Y-66331559D01*
G37*
G36*
X107669003Y-66131559D02*
X107702303Y-66134839D01*
X107766393Y-66154280D01*
X107830485Y-66173722D01*
X107948617Y-66236865D01*
X108052159Y-66321841D01*
X108137135Y-66425383D01*
X108200278Y-66543515D01*
X108239161Y-66671698D01*
X108252290Y-66805000D01*
X108239161Y-66938302D01*
X108200278Y-67066485D01*
X108137135Y-67184617D01*
X108052159Y-67288159D01*
X107948617Y-67373135D01*
X107830485Y-67436278D01*
X107766393Y-67455720D01*
X107702303Y-67475161D01*
X107669003Y-67478441D01*
X107602406Y-67485000D01*
X106277594Y-67485000D01*
X106210997Y-67478441D01*
X106177697Y-67475161D01*
X106113607Y-67455720D01*
X106049515Y-67436278D01*
X105931383Y-67373135D01*
X105827841Y-67288159D01*
X105742865Y-67184617D01*
X105679722Y-67066485D01*
X105640839Y-66938302D01*
X105627710Y-66805000D01*
X105640839Y-66671698D01*
X105679722Y-66543515D01*
X105742865Y-66425383D01*
X105827841Y-66321841D01*
X105931383Y-66236865D01*
X106049515Y-66173722D01*
X106113607Y-66154280D01*
X106177697Y-66134839D01*
X106210997Y-66131559D01*
X106277594Y-66125000D01*
X107602406Y-66125000D01*
X107669003Y-66131559D01*
X107669003Y-66131559D01*
G37*
G36*
X165226000Y-50111000D02*
X162524000Y-50111000D01*
X162524000Y-46409000D01*
X165226000Y-46409000D01*
X165226000Y-50111000D01*
X165226000Y-50111000D01*
G37*
G36*
X135926000Y-50111000D02*
X133224000Y-50111000D01*
X133224000Y-46409000D01*
X135926000Y-46409000D01*
X135926000Y-50111000D01*
X135926000Y-50111000D01*
G37*
M02*
